<svg xmlns="http://www.w3.org/2000/svg" xmlns:xlink="http://www.w3.org/1999/xlink" viewBox="0 0 385.00591 345.19098"><defs><style>.cls-1{fill:none;}.cls-2{fill:#726658;}.cls-3{fill:#56595c;}.cls-4{fill:#db3742;}.cls-5,.cls-9{fill:#451717;}.cls-6{fill:#370e10;}.cls-11,.cls-13,.cls-7,.cls-8{fill:#fff;}.cls-8{opacity:0.08;}.cls-9{opacity:0.16;}.cls-10{clip-path:url(#clip-path);}.cls-11{opacity:0.14;}.cls-12{fill:#9b8579;}.cls-13{stroke:#bcbec0;stroke-miterlimit:10;}.cls-14{fill:#bcbec0;opacity:0.28;}</style><clipPath id="clip-path"><path class="cls-1" d="M273.37118,169.58136c0-34.14875-36.20594-61.83163-80.86822-61.83163s-80.86822,27.96271-80.86822,62.11146c0,19.823,23.26761,40.97611,40.85251,51.18383,14.27817,8.28824,48.99514,18.36345,51.01064,20.15561C269.63349,209.32478,273.37118,169.58136,273.37118,169.58136Z"/></clipPath></defs><title>Mashlings</title><g id="Layer_1" data-name="Layer 1"><path class="cls-2" d="M203.85813,116.2866c-33.95194-1.99495-90.32419,1.19143-90.32419,1.19143s32.95859,11.78471,83.53777,20.2526,101.54617,15.29918,101.54617,15.29918S243.88018,118.63822,203.85813,116.2866Z"/><path class="cls-3" d="M248.06293,70.11586c3.13306,12.53226-.35133,33.9196-24.84072,67.36088,0,0-24.13811,31.45846-2.00232-3.41256,23.2276-36.591,18.07012-62.26564,13.82294-73.13585a2.91982,2.91982,0,0,1,4.3286-3.496A21.67744,21.67744,0,0,1,248.06293,70.11586Z"/><path class="cls-3" d="M170.64327,112.192c.49817,1.5595-4.51175-20.23247-13.90764-34.67437a20.53845,20.53845,0,0,0-18.82756-9.03933,1.87427,1.87427,0,0,0-1.05378,3.28243c6.6442,5.75868,22.67325,20.994,31.10853,40.51057C168.78682,114.17778,169.98565,110.13335,170.64327,112.192Z"/><path class="cls-3" d="M153.31569,249.24258c11.22673,18.9909,38.11412,2.66966,49.8193-6.93835,2.04365-1.6775-2.60721-3.262-4.22307-1.93563-9.49877,7.79691-31.97373,22.98443-41.1961,7.38407-1.07958-1.8262-5.8139-.90159-4.40013,1.48991Z"/><path class="cls-3" d="M206.76534,240.41974c10.21283-.00514,22.82576-2.46407,32.61094.86517,13.42321,4.567,2.68814,18.993-5.06113,23.1284-1.98508,1.05933,2.64054.79791,3.53068.32289,7.13341-3.8067,18.81885-15.73813,9.23284-23.38713-3.93817-3.1424-10.60822-4.59123-15.32482-4.75136-7.81945-.26548-14.50736.4956-22.33333.49954-1.24854.00063-5.69227,3.324-2.65518,3.32248Z"/><path class="cls-3" d="M245.01119,273.9312c2.91928,1.57819,4.90224,5.56955,6.15646,8.43661.32842.75075,2.44662,1.57653,1.8991.32494-1.59829-3.65358-4.10664-8.15732-7.77727-10.1417-1.40681-.76053-1.31965.81718-.2783,1.38015Z"/><path class="cls-3" d="M238.40658,279.34055c.823.38707,1.23346,2.11429,1.48449,2.88675a23.0196,23.0196,0,0,1,1.06349,6.80136c.01225.83823,2.25862.12317,2.24813-.59423a24.0274,24.0274,0,0,0-1.0902-7.09773c-.27658-.85118-.73566-2.68011-1.6699-3.11949-.69172-.32531-2.61868.8493-2.036,1.12334Z"/><path class="cls-3" d="M221.84861,281.13459c-1.56716,3.77951-1.56849,7.599-1.16364,11.598.22936,2.26558,4.43113,3.78408,4.13184.82773-.33407-3.29987-.4731-6.49917.82689-9.63435.86443-2.08474-2.84135-5.0915-3.79509-2.79138Z"/><path class="cls-3" d="M211.85855,278.29443a22.41423,22.41423,0,0,0-4.25172,8.29389c.03-.10393,2.232.15535,2.371-.32577a22.41,22.41,0,0,1,4.25172-8.29389c-.00326.004-1.08685.00344-1.20518.0197-.30543.042-.95057.04485-1.16584.30607Z"/><path class="cls-4" d="M273.37118,169.58136c0-34.14875-36.20594-61.83163-80.86822-61.83163s-80.86822,27.96271-80.86822,62.11146c0,19.823,23.26761,40.97611,40.85251,51.18383,14.27817,8.28824,48.99514,18.36345,51.01064,20.15561C269.63349,209.32478,273.37118,169.58136,273.37118,169.58136Z"/><circle class="cls-5" cx="228.80096" cy="148.34931" r="10.73273"/><path class="cls-6" d="M228.8008,160.03973A11.69068,11.69068,0,1,1,240.49055,148.35,11.70386,11.70386,0,0,1,228.8008,160.03973Zm0-21.46673a9.776,9.776,0,1,0,9.77511,9.777A9.78713,9.78713,0,0,0,228.8008,138.573Z"/><circle class="cls-7" cx="232.24314" cy="144.60894" r="3.44218"/><path class="cls-8" d="M195.78483,268.82209c-6.17646-12.91531-.7621-26.511,5.95714-28.16877a3.80191,3.80191,0,0,1,4.44745,3.40383C206.97248,248.16818,194.77691,252.08509,195.78483,268.82209Z"/><circle class="cls-5" cx="146.74009" cy="141.86444" r="8.81431"/><path class="cls-6" d="M146.74073,151.63516a9.77137,9.77137,0,1,1,9.77137-9.77137A9.78154,9.78154,0,0,1,146.74073,151.63516Zm0-17.62811a7.85674,7.85674,0,1,0,7.85674,7.85674A7.86561,7.86561,0,0,0,146.74073,134.00705Z"/><circle class="cls-7" cx="149.567" cy="138.79264" r="2.82691"/><path class="cls-6" d="M201.36767,196.92638a36.75479,36.75479,0,0,1-6.72179-.62076.95643.95643,0,0,1,.34778-1.881c19.668,3.62921,34.56066-10.44636,37.47562-15.7116a.95743.95743,0,0,1,1.67531.9274C231.40164,184.59344,218.68727,196.92638,201.36767,196.92638Z"/><path class="cls-4" d="M230.96257,282.86675c-12.13666,2.05642-22.09727-6.04336-23.44147-11.49173s-3.83283-4.89588,8.11846-7.84445,24.80869,2.91867,34.59176,3.34483C250.23132,266.8754,248.18812,279.94809,230.96257,282.86675Z"/><path class="cls-4" d="M200.98346,237.49487c7.06444-4.07865,18.30695-4.08019,24.00127,5.78267s3.68413,25.85524-3.38031,29.93389-17.40745-.61037-23.10178-10.47322S193.919,241.57353,200.98346,237.49487Z"/><path class="cls-9" d="M227.64394,262.99115c1.33379-6.30506.62541-14.02446-2.65935-19.71361a15.90232,15.90232,0,0,0-10.2716-7.87372c3.34134,2.49941,5.07308,8.11707,5.3742,13.17831.54408,9.145-2.9717,16.15031-9.2302,17.18967-6.25871,1.03925-12.54909-5.44433-14.0499-14.48179a21.42991,21.42991,0,0,1,.85133-10.814c-3.91586,5.26486-3.78791,14.23908.84415,22.26221a25.9839,25.9839,0,0,0,9.3357,9.584c2.16612,5.38479,11.67221,12.48491,23.12421,10.5445,17.2255-2.91863,19.26894-15.99136,19.26894-15.99136C243.68218,266.59008,235.75417,263.876,227.64394,262.99115Z"/><g class="cls-10"><path class="cls-9" d="M220.45844,108.99106s22.81438,8.01282,32.68808,18.37289c13.25574,13.90869,33.7144,36.545,8.48072,73.41056-21.295,31.11128-61.225,42.32811-61.225,42.32811s-39.97354-15.37837-56.73734-28.142c0,0,54.02879,20.257,80.4494.2528C268.53114,181.58362,276.24073,131.72551,220.45844,108.99106Z"/><path class="cls-11" d="M137.92577,210.91365c-8.01443-4.90935-41.78284-22.82365-28.73146-51.8316,28.83609-64.091,88.55954-59.42432,115.35059-46.28452-13.72265-.89352-56.4189-9.08468-86.61913,20.2526C119.6232,150.82972,113.63485,185.83124,137.92577,210.91365Z"/></g><path class="cls-12" d="M216.31657,81.96024c.012-.07321.03805-.14053.0465-.215a4.31732,4.31732,0,0,0-8.57964-.973c-.00241.02123.00132.04143-.00084.06268-27.70314-2.04459-51.68176,11.90691-54.92289,32.86548,0,0,62.60865-.33143,109.12859,16.8758C265.3575,108.78934,245.07869,87.44958,216.31657,81.96024Z"/><path class="cls-2" d="M156.75784,102.70943a31.47,31.47,0,0,0-3.89815,10.99092s62.60865-.33143,109.12859,16.8758c3.36922-21.78681-16.90959-43.12657-45.67171-48.61591.012-.07321.03805-.14053.0465-.215a4.31732,4.31732,0,0,0-8.57964-.973c-.00241.02123.00132.04143-.00084.06268a69.36438,69.36438,0,0,0-19.81318,1.32537s23.46479-1.8599,40.3202,7.55c18.93561,10.57127,20.40417,25.91959,20.40417,25.91959S195.14293,98.00338,156.75784,102.70943Z"/><path class="cls-12" d="M209.19092,81.04034c1.32014-3.80467,4.0024-3.103,4.8727-2.01938a4.15839,4.15839,0,0,1,.76194,2.6006A12.07993,12.07993,0,0,0,209.19092,81.04034Z"/><path class="cls-12" d="M113.53394,117.478c13.19595-9.80895,54.17037-18.63588,100.52967-7.64315,68.02172,16.12932,84.55427,43.19494,84.55427,43.19494S225.00207,116.65329,113.53394,117.478Z"/><path class="cls-12" d="M232.24314,256.45929c-8.96173,6.99082-16.60358,7.07128-16.60358,7.07128l-4.881-21.96524s3.04259-.91819,3.95439-6.16152C214.713,235.40382,224.59521,230.69128,232.24314,256.45929Z"/><path class="cls-12" d="M198.72474,239.18845s-6.6501-.53075-4.86191,23.51682c0,0,4.95717,1.90446,9.53126.82531L201.508,242.51472S198.74951,241.56689,198.72474,239.18845Z"/><path class="cls-2" d="M215.3413,236.54152c-.58333,2.63987-1.58333,4.55653-3.33333,5.7232L216.8413,262.098s12.08333-4.16667,14.08333-6.33333c0,0-10.66667,4-11.83333,2.91667s-4.86173-15.75-4.86173-15.75S216.258,239.235,215.3413,236.54152Z"/><path class="cls-2" d="M197.65842,240.476a7.61541,7.61541,0,0,0,2.87236,2.86795l1.27148,19.36134s-5.13593-.28127-6.59581-1.00431c0,0,4.76806-.07947,4.84753-.55627s-.87414-17.00608-.87414-17.00608A5.63781,5.63781,0,0,1,197.65842,240.476Z"/><path class="cls-4" d="M116.667,227.50208c-5.38616,0-5.17072,2.64753-5.17072,9.94163s3.44714,9.04765,6.67884,8.17087S116.667,227.50208,116.667,227.50208Z"/><path class="cls-13" d="M160.80435,259.12848c6.29-.14888,6.29-21.02039,6.29-21.02039h-8.86324S156.22977,258.41963,160.80435,259.12848Z"/><path class="cls-13" d="M118.48952,215.52113c-8.57733,16.58284-3.43093,30.10763,2.5732,38.21261,0,0,33.45159-12.07261,47.17532-10.13228l.41278-12.2816S144.79333,233.53352,118.48952,215.52113Z"/><path class="cls-14" d="M160.80435,259.12848c6.29-.14888,6.29-21.02039,6.29-21.02039h-3.56671S164.58577,251.75731,160.80435,259.12848Z"/><path class="cls-14" d="M115.3484,242.4537a36.86479,36.86479,0,0,0,5.71431,11.28s33.45159-12.07261,47.17532-10.13228l.93466-6.15725C159.51348,236.35223,125.359,240.727,115.3484,242.4537Z"/><path class="cls-4" d="M155.07718,244.366c5.066-.85895,9.72991-1.24968,13.16085-.76459l.41278-12.2816s-3.83175.40466-12.09372-.79848C153.20766,236.35179,154.37908,240.398,155.07718,244.366Z"/><path class="cls-9" d="M168.436,237.70985l-.198,5.89161c-3.43093-.48508-8.09486-.09436-13.16085.76459a31.37631,31.37631,0,0,1-.77725-6.25784A50.14566,50.14566,0,0,1,168.436,237.70985Z"/></g></svg>