<svg xmlns="http://www.w3.org/2000/svg" xmlns:xlink="http://www.w3.org/1999/xlink" viewBox="0 0 532.78361 433.01955"><defs><style>.cls-1{fill:none;}.cls-2{fill:#56595c;}.cls-3{fill:#db3742;}.cls-4,.cls-8{fill:#451717;}.cls-5{fill:#370e10;}.cls-10,.cls-6,.cls-7{fill:#fff;}.cls-7{opacity:0.08;}.cls-8{opacity:0.16;}.cls-9{clip-path:url(#clip-path);}.cls-10{opacity:0.14;}</style><clipPath id="clip-path"><path class="cls-1" d="M324.26857,213.23878c0-34.14875-36.20594-61.83163-80.86822-61.83163s-80.86822,27.96271-80.86822,62.11146c0,19.823,23.26761,40.97611,40.85251,51.18383,14.27817,8.28824,48.99514,18.36345,51.01064,20.15561C320.53088,252.9822,324.26857,213.23878,324.26857,213.23878Z"/></clipPath></defs><title>Mashlings</title><g id="Layer_1" data-name="Layer 1"><path class="cls-2" d="M250.031,282.39977c-8.929,1.84258-19.12623,10.03257-14.66669,20.18163,3.72307,8.473,15.97515,10.94071,24.25583,11.49343,2.33776.156,2.93235-3.01783.3435-3.19063-6.57049-.43857-15.772-2.27687-19.85152-7.91416-5.944-8.21375,3.01336-15.94033,10.63625-17.51338,2.45807-.50725,1.73154-3.56224-.71736-3.05688Z"/><path class="cls-2" d="M257.66274,284.07717c10.21283-.00514,22.82576-2.46407,32.61094.86517,13.42321,4.567,2.68814,18.993-5.06113,23.1284-1.98508,1.05933,2.64054.79791,3.53068.32289,7.13341-3.8067,18.81885-15.73813,9.23284-23.38713-3.93817-3.1424-10.60822-4.59123-15.32482-4.75136-7.81945-.26548-14.50736.4956-22.33333.49954-1.24854.00063-5.69227,3.324-2.65518,3.32248Z"/><path class="cls-2" d="M295.90858,317.58863c2.91928,1.57819,4.90224,5.56955,6.15646,8.43661.32842.75075,2.44662,1.57653,1.8991.32494-1.59829-3.65358-4.10664-8.15732-7.77727-10.1417-1.40681-.76053-1.31965.81718-.2783,1.38015Z"/><path class="cls-2" d="M289.304,322.998c.823.38707,1.23346,2.11429,1.48449,2.88675a23.0196,23.0196,0,0,1,1.06349,6.80136c.01225.83823,2.25862.12317,2.24813-.59423a24.0274,24.0274,0,0,0-1.0902-7.09773c-.27658-.85118-.73566-2.68011-1.6699-3.11949-.69172-.32531-2.61868.8493-2.036,1.12334Z"/><path class="cls-2" d="M272.746,324.792c-1.56716,3.77951-1.56849,7.599-1.16364,11.598.22936,2.26558,4.43113,3.78408,4.13184.82773-.33407-3.29987-.4731-6.49917.82689-9.63435.86443-2.08474-2.84135-5.0915-3.79509-2.79138Z"/><path class="cls-2" d="M262.75595,321.95186a22.41423,22.41423,0,0,0-4.25172,8.29389c.03-.10393,2.232.15535,2.371-.32577a22.41,22.41,0,0,1,4.25172-8.29389c-.00326.004-1.08685.00344-1.20518.0197-.30543.042-.95057.04485-1.16584.30607Z"/><path class="cls-2" d="M298.96032,113.77328c3.13306,12.53226-.35133,33.9196-24.84072,67.36088,0,0-24.13811,31.45846-2.00232-3.41256,23.2276-36.591,18.07012-62.26564,13.82294-73.13585a2.91982,2.91982,0,0,1,4.3286-3.496A21.67744,21.67744,0,0,1,298.96032,113.77328Z"/><path class="cls-2" d="M221.54067,155.84943c.49817,1.5595-4.51175-20.23247-13.90764-34.67437a20.53845,20.53845,0,0,0-18.82756-9.03933,1.87427,1.87427,0,0,0-1.05378,3.28243c6.6442,5.75869,22.67325,20.994,31.10853,40.51057C219.68421,157.83521,220.883,153.79077,221.54067,155.84943Z"/><path class="cls-3" d="M324.26857,213.23878c0-34.14875-36.20594-61.83163-80.86822-61.83163s-80.86822,27.96271-80.86822,62.11146c0,19.823,23.26761,40.97611,40.85251,51.18383,14.27817,8.28824,48.99514,18.36345,51.01064,20.15561C320.53088,252.9822,324.26857,213.23878,324.26857,213.23878Z"/><circle class="cls-4" cx="279.69835" cy="192.00674" r="10.73273"/><path class="cls-5" d="M279.6982,203.69716a11.69068,11.69068,0,1,1,11.68975-11.68975A11.70386,11.70386,0,0,1,279.6982,203.69716Zm0-21.46673a9.776,9.776,0,1,0,9.77511,9.777A9.78713,9.78713,0,0,0,279.6982,182.23043Z"/><circle class="cls-6" cx="283.14053" cy="188.26637" r="3.44218"/><path class="cls-7" d="M246.68223,312.47951c-6.17646-12.91531-.7621-26.511,5.95714-28.16877a3.80191,3.80191,0,0,1,4.44745,3.40383C257.86987,291.82561,245.6743,295.74252,246.68223,312.47951Z"/><circle class="cls-4" cx="197.63748" cy="185.52187" r="8.81431"/><path class="cls-5" d="M197.63812,195.29258a9.77137,9.77137,0,1,1,9.77137-9.77137A9.78154,9.78154,0,0,1,197.63812,195.29258Zm0-17.62811a7.85674,7.85674,0,1,0,7.85674,7.85674A7.86561,7.86561,0,0,0,197.63812,177.66448Z"/><circle class="cls-6" cx="200.46439" cy="182.45007" r="2.82691"/><path class="cls-5" d="M252.26506,240.58381a36.75479,36.75479,0,0,1-6.72179-.62076.95643.95643,0,0,1,.34778-1.881c19.668,3.62921,34.56066-10.44636,37.47562-15.7116a.95743.95743,0,0,1,1.67531.9274C282.299,228.25086,269.58466,240.58381,252.26506,240.58381Z"/><path class="cls-3" d="M281.86,326.52418c-12.13666,2.05642-22.09727-6.04336-23.44147-11.49173s-3.83283-4.89588,8.11846-7.84445,24.80869,2.91867,34.59176,3.34483C301.12871,310.53283,299.08552,323.60551,281.86,326.52418Z"/><path class="cls-3" d="M251.88086,281.1523c7.06444-4.07865,18.30695-4.08019,24.00127,5.78267s3.68413,25.85524-3.38031,29.93389-17.40745-.61037-23.10178-10.47322S244.81642,285.231,251.88086,281.1523Z"/><path class="cls-8" d="M278.54133,306.64857c1.33379-6.30506.62541-14.02446-2.65935-19.71361a15.90232,15.90232,0,0,0-10.2716-7.87372c3.34134,2.49941,5.07308,8.11707,5.3742,13.17831.54408,9.145-2.9717,16.15031-9.2302,17.18967-6.25871,1.03925-12.54909-5.44433-14.0499-14.48179a21.42991,21.42991,0,0,1,.85133-10.814c-3.91586,5.26486-3.78791,14.23908.84415,22.26221a25.9839,25.9839,0,0,0,9.3357,9.584c2.16612,5.38479,11.67221,12.48491,23.12421,10.5445,17.2255-2.91863,19.26894-15.99136,19.26894-15.99136C294.57957,310.24751,286.65156,307.53347,278.54133,306.64857Z"/><g class="cls-9"><path class="cls-8" d="M271.35583,152.64849s22.81438,8.01282,32.68808,18.37289c13.25574,13.90869,33.7144,36.545,8.48072,73.41056-21.295,31.11128-61.225,42.32811-61.225,42.32811s-39.97354-15.37837-56.73734-28.142c0,0,54.02879,20.257,80.4494.2528C319.42854,225.241,327.13813,175.38294,271.35583,152.64849Z"/><path class="cls-10" d="M188.82316,254.57107c-8.01443-4.90935-41.78284-22.82365-28.73146-51.8316,28.83609-64.091,88.55954-59.42432,115.35059-46.28452-13.72265-.89352-56.4189-9.08468-86.61913,20.2526C170.5206,194.48714,164.53224,229.48867,188.82316,254.57107Z"/></g></g></svg>