<svg xmlns="http://www.w3.org/2000/svg" viewBox="0 0 338.22116 433.01955"><defs><style>.cls-1{fill:#d8d8d8;opacity:0.5;}.cls-2{fill:#e6e7e8;}.cls-3{fill:#56595c;}.cls-4{fill:#db3742;}.cls-5{fill:#fff;}.cls-6{fill:#451717;}.cls-7{fill:#370e10;}</style></defs><title>example</title><g id="Layer_1" data-name="Layer 1"><circle class="cls-1" cx="169.11058" cy="216.50977" r="157.5"/><circle class="cls-2" cx="169.11058" cy="216.50977" r="157.5"/><circle class="cls-1" cx="169.11058" cy="217.50977" r="157.5"/><path class="cls-3" d="M144.80488,291.87254c3.66465-5.96825,9.44431-11.32,16.1602-13.45858,1.50233-.47839.68531-2.29315-.78672-1.82441-7.31681,2.32991-13.57409,8.2128-17.553,14.69293-.81835,1.33276,1.51514,1.67215,2.17957.59007Z"/><path class="cls-3" d="M168.58536,276.89264c5.97791,3.67058,11.41523,9.48821,13.559,16.22047.37741,1.18521,2.86259,1.00847,2.449-.29035-2.32466-7.3003-8.12092-13.51906-14.59251-17.49277-1.14319-.70195-2.80668.70843-1.41551,1.56265Z"/><path class="cls-3" d="M156.49464,326.19663c-.62023-5.2498,1.06878-10.96686,5.10745-14.47177.91324-.79254-1.40806-1.51083-2.06075-.94441a17.45266,17.45266,0,0,0-5.52886,15.118c.11618.9834,2.58172,1.14093,2.48215.29818Z"/><path class="cls-3" d="M167.32906,332.29893c1.01731-6.20989,1.75254-13.19448-.04678-19.30736-.26557-.90223-2.65176-1.3714-2.28578-.128,1.74716,5.93569.94091,12.84824-.04678,18.87728-.15224.92931,2.19121,1.70645,2.37934.55811Z"/><path class="cls-3" d="M180.06344,313.46818c-.36066,4.4709.29778,9.89725,3.48674,13.269.46078.4872,2.43716-.98345,2.13112-1.307-3.1639-3.34529-3.81061-8.61064-3.453-13.04327.03727-.462-2.11066.40981-2.16483,1.08126Z"/><path class="cls-3" d="M184.4633,305.2649c2.58606,2.22875,3.94168,5.966,4.6602,9.17493.09639.43049,2.51222-.19273,2.39439-.719-.739-3.30059-2.14382-7.03435-4.79739-9.3213-.45348-.39082-2.56451.60047-2.2572.86532Z"/><path class="cls-3" d="M123.3386,147.24263c9.36494,6.11262,19.74015,21.7419,23.87383,57.38644,0,0,3.18974,34.17893-3.27969-.98813-6.78852-36.90163-25.17362-50.16674-34.26771-54.56843a2.52774,2.52774,0,0,1,.69065-4.76712A18.76654,18.76654,0,0,1,123.3386,147.24263Z"/><path class="cls-3" d="M229.573,149.78867c-10.44891,3.98577-23.90488,17.057-35.5095,51.01215,0,0-10.37112,32.72329,3.41469-.26955,14.46578-34.62017,35.24738-43.68106,45.0685-46.05237a2.52774,2.52774,0,0,0,.33685-4.80509A18.76654,18.76654,0,0,0,229.573,149.78867Z"/><path class="cls-4" d="M160.57172,277.50175c-32.89019-11.18316-46.69983-19.88273-48.98147-38.56716s24.58616-32.46465,59.30542-32.69284,42.90568,20.38767,43.14706,30.91561S194.24846,269.43254,160.57172,277.50175Z"/><path class="cls-4" d="M165.39192,302.35349s-19.65313-5.46963-6.3855-29.93331C165.57534,260.308,187.13993,289.82539,165.39192,302.35349Z"/><path class="cls-4" d="M190.3207,299.72882s-3.76337,21.05733-17.99426,22.48042c-19.88935,1.98893-21.45956-18.73786-9.5765-24.80934C172.45628,292.44058,179.00434,300.80157,190.3207,299.72882Z"/><path class="cls-5" d="M90.24069,144.29869a1,1,0,0,1-.833-1.55176A54.77813,54.77813,0,0,1,110.686,123.93052a1.00012,1.00012,0,0,1,.89063,1.791,52.77152,52.77152,0,0,0-20.501,18.12891A.99866.99866,0,0,1,90.24069,144.29869Z"/><path class="cls-5" d="M66.17917,132.70347a.99971.99971,0,0,1-.85645-1.51367,81.5804,81.5804,0,0,1,40.48633-34.08643.99992.99992,0,1,1,.71875,1.86621,79.57973,79.57973,0,0,0-39.49023,33.24756A.99764.99764,0,0,1,66.17917,132.70347Z"/><path class="cls-5" d="M49.55807,121.85582a.99961.99961,0,0,1-.85254-1.52051,100.98621,100.98621,0,0,1,55.88672-43.811,1.0001,1.0001,0,1,1,.59961,1.9082,98.99014,98.99014,0,0,0-54.7793,42.94385A.99917.99917,0,0,1,49.55807,121.85582Z"/><path class="cls-5" d="M266.80515,159.43248a.99948.99948,0,0,1-.89648-.55469,52.76281,52.76281,0,0,0-18.12891-20.5,1,1,0,1,1,1.10352-1.668,54.76257,54.76257,0,0,1,18.81641,21.27734.9999.9999,0,0,1-.89453,1.44531Z"/><path class="cls-5" d="M293.59421,154.47056a1.0006,1.0006,0,0,1-.93359-.64062,79.57961,79.57961,0,0,0-33.24707-39.48975.99993.99993,0,0,1,1.02734-1.71582,81.58931,81.58931,0,0,1,34.08691,40.48682,1.00046,1.00046,0,0,1-.57422,1.293A1.0119,1.0119,0,0,1,293.59421,154.47056Z"/><path class="cls-5" d="M314.15182,153.19322a.99983.99983,0,0,1-.9541-.7002,98.9854,98.9854,0,0,0-42.94336-54.77783,1.00013,1.00013,0,0,1,1.041-1.708,100.98432,100.98432,0,0,1,43.81055,55.88623.99982.99982,0,0,1-.9541,1.2998Z"/><circle class="cls-6" cx="187.78326" cy="226.37651" r="6.09552" transform="matrix(0.99131, -0.13158, 0.13158, 0.99131, -28.154, 26.6768)"/><path class="cls-7" d="M188.65679,232.95822a6.63958,6.63958,0,1,1,5.70776-7.45489A6.64706,6.64706,0,0,1,188.65679,232.95822Zm-1.6042-12.08576a5.55218,5.55218,0,1,0,6.234,4.77395A5.55848,5.55848,0,0,0,187.0526,220.87246Z"/><circle class="cls-5" cx="185.29795" cy="225.04933" r="1.95494" transform="translate(-28.00098 26.33824) rotate(-7.56092)"/><circle class="cls-6" cx="138.91448" cy="227.01392" r="6.09552" transform="translate(-28.66276 20.25217) rotate(-7.56092)"/><path class="cls-7" d="M139.788,233.59563a6.63958,6.63958,0,1,1,5.70776-7.45489A6.64706,6.64706,0,0,1,139.788,233.59563Zm-1.6042-12.08576a5.55218,5.55218,0,1,0,6.234,4.77395A5.55848,5.55848,0,0,0,138.18382,221.50987Z"/><circle class="cls-5" cx="136.42917" cy="225.68674" r="1.95494" transform="translate(-28.50974 19.91362) rotate(-7.56092)"/></g></svg>