<svg xmlns="http://www.w3.org/2000/svg" viewBox="0 0 338.22116 433.01955"><defs><style>.cls-1,.cls-13{fill:#d8d8d8;}.cls-1{opacity:0.5;}.cls-2{fill:#db3742;}.cls-3{fill:#451717;}.cls-4{fill:#370e10;}.cls-5{fill:#56595c;}.cls-14,.cls-6{fill:#fff;}.cls-7{fill:#2a3f3f;}.cls-8{fill:#415b59;}.cls-9{fill:#0f3600;}.cls-10{fill:#2e2a25;}.cls-11{fill:#414042;}.cls-12{fill:#a7a9ac;}.cls-14{opacity:0.2;}</style></defs><title>Mashlings</title><g id="Layer_1" data-name="Layer 1"><circle class="cls-1" cx="169.11058" cy="216.50977" r="157.5"/><path class="cls-2" d="M159.23274,149.4524c-80.67025,3.91277-83.05646,78.64568-62.08348,96.05293,23.02883,19.11357,123.93353,26.19274,130.00583-21.98594C232.86872,178.18649,198.92762,150.16934,159.23274,149.4524Z"/><circle class="cls-3" cx="119.62539" cy="205.25806" r="9.81376"/><path class="cls-4" d="M119.62611,216.13666a10.87934,10.87934,0,1,1,10.87934-10.87934A10.89066,10.89066,0,0,1,119.62611,216.13666Zm0-19.62694a8.7476,8.7476,0,1,0,8.7476,8.7476A8.75749,8.75749,0,0,0,119.62611,196.50972Z"/><path class="cls-5" d="M175.43461,308.3363c-.00908-6.595-2.06125-13.27367-4.92011-19.14232-.49714-1.02053-3.44609-.05741-3.02348.81014,2.85953,5.87,4.911,12.54648,4.92011,19.14232.00125.908,3.02507.34812,3.02348-.81014Z"/><path class="cls-5" d="M142.07164,307.40559c-.00908-6.595-2.06125-13.27367-4.92011-19.14232-.49714-1.02052-3.44609-.05741-3.02348.81014,2.85953,5.87,4.911,12.54648,4.92011,19.14232.00125.908,3.02507.34812,3.02348-.81014Z"/><path class="cls-5" d="M164.31966,261.16553c7.01726,8.44712,17.67118,16.35691,29.16617,14.98013,1.03044-.12342,4.36674-1.89742,1.75613-1.58474-10.51134,1.259-20.75863-7.09855-27.12075-14.757-.61123-.73577-4.38987.65345-3.80154,1.36165Z"/><circle class="cls-6" cx="122.77284" cy="201.83795" r="3.14745"/><path class="cls-2" d="M158.064,247.94353c-13.44773,16.20924-16.25084,35.311-1.71624,35.311s14.48893-17.41369,7.57668-36.50277Z"/><path class="cls-2" d="M145.3011,275.35328s-18.93285,4.62231-25.675,19.0052c0,0,20.824,15.39232,42.09534,6.96331s4.95442-25.96851,4.95442-25.96851Z"/><path class="cls-5" d="M160.85868,316.45132a38.19316,38.19316,0,0,1-.00122-22.28661c.3098-1.036-2.71869-.62324-3.021.38753a39.09154,39.09154,0,0,0-.0013,22.70922c.33094,1.03469,3.34342.19017,3.02348-.81014Z"/><path class="cls-5" d="M128.69551,311.0215c-2.80093-5.43314-1.71652-12.47306-.00122-18.00863.318-1.02638-2.70831-.62143-3.021.38753-1.73838,5.61-2.84438,12.91633-.0013,18.43124.52272,1.014,3.45864.034,3.02348-.81014Z"/><path class="cls-5" d="M118.94909,276.84226c6.88456-9.0438,19.31362-15.04863,30.64131-14.42764,1.665.09128,4.23993-2.32626,1.51745-2.47551-13.38488-.73377-27.81952,6.03756-35.942,16.70754-1.15807,1.52129,2.91381,1.33773,3.78324.19561Z"/><path class="cls-5" d="M101.17142,72.52306c11.48921,7.49917,24.21787,26.67368,29.28921,70.40359,0,0,3.91327,41.93185-4.02363-1.21228C118.10861,96.44222,95.55316,80.16815,84.39623,74.768a3.10112,3.10112,0,0,1,.84731-5.84846A23.02341,23.02341,0,0,1,101.17142,72.52306Z"/><path class="cls-5" d="M231.50325,75.64662C218.68418,80.5365,202.176,96.57268,187.939,138.23c0,0-12.72363,40.146,4.18926-.33069,17.7471-42.47317,43.24266-53.58937,55.29153-56.49857a3.10112,3.10112,0,0,0,.41326-5.895A23.02341,23.02341,0,0,0,231.50325,75.64662Z"/><path class="cls-7" d="M159.09745,149.4524c-47.3269,0-91.36288,18.16024-78.21893,21.78407,31.114,8.57822,142.2311,6.83926,155.56107-2.37725C247.98507,160.87654,185.55009,149.4524,159.09745,149.4524Z"/><path class="cls-8" d="M159.347,161.67835c-38.80945-1.36813-52.30886-2.40442-52.30886-2.40442s20.87582-34.93214,33.52181-34.93214,17.74575,4.8691,17.74575,4.8691,9.5207-4.8691,18.55672-4.8691,32.94806,34.93214,32.94806,34.93214S184.19052,162.55414,159.347,161.67835Z"/><path class="cls-8" d="M158.30569,153.20856c-40.64259,0-83.54148,12.83776-72.31769,16.17235s133.63917,2.94154,144.42786-2.43455S181.02224,153.20856,158.30569,153.20856Z"/><path class="cls-9" d="M111.99252,156.86038c6.95585-10.43378,10.086-13.776,10.086-13.776s52.75357,3.26584,72.28539,0L203.288,155.9751a384.50463,384.50463,0,0,1-47.66528,3.29882C135.46851,159.27392,111.99252,156.86038,111.99252,156.86038Z"/><path class="cls-10" d="M184.70854,328.05711h0c-4.26812-.80785-7.1889-4.17337-6.47435-7.4602l13.06814-60.11221,11.96339,2.26437-9.80427,60.73C192.92536,326.79967,188.97667,328.865,184.70854,328.05711Z"/><path class="cls-11" d="M192.766,269.8242l2.862.54171-10.45518,55.238h0a4.16122,4.16122,0,0,1-3.31475-4.8625Z"/><circle class="cls-2" cx="207.1428" cy="209.52981" r="50.24676" transform="translate(-37.25472 374.09205) rotate(-79.28213)"/><circle class="cls-12" cx="197.79825" cy="258.90001" r="9.15469" transform="translate(-93.37036 405.09919) rotate(-79.28213)"/><path class="cls-10" d="M197.80217,269.446A10.55023,10.55023,0,0,1,187.43632,256.939h0A10.54572,10.54572,0,1,1,197.80217,269.446Zm-7.63242-11.99069a7.76581,7.76581,0,1,0,3.25512-4.96963,7.77219,7.77219,0,0,0-3.25512,4.96963Z"/><path class="cls-12" d="M216.48735,160.15961A50.24676,50.24676,0,1,0,256.513,218.87436,50.24671,50.24671,0,0,0,216.48735,160.15961Zm-16.46479,86.98868a38.2864,38.2864,0,1,1,44.73873-30.49824A38.28642,38.28642,0,0,1,200.02256,247.14829Z"/><path class="cls-10" d="M216.48735,160.15965a50.46228,50.46228,0,0,0-19.588.26229,49.28469,49.28469,0,1,0,37.72479,7.14087A50.46087,50.46087,0,0,0,216.48735,160.15965Zm0,0a51.27762,51.27762,0,0,1,1.32613,100.52214,51.298,51.298,0,0,1-39.29512-7.44094,51.23666,51.23666,0,0,1,.15878-85.46806A51.24058,51.24058,0,0,1,216.48735,160.15965Z"/><path class="cls-10" d="M200.02257,247.14828a39.29808,39.29808,0,0,1-31.51853-44.9318,39.25221,39.25221,0,0,1,30.411-32.1275,39.352,39.352,0,0,1,30.30227,5.73221,39.33261,39.33261,0,0,1-29.1947,71.3271Zm0,0a38.44116,38.44116,0,0,0,14.92145-.21881,37.1559,37.1559,0,0,0,28.78713-30.47438,37.217,37.217,0,0,0-.51778-14.44867,37.59138,37.59138,0,0,0-5.92283-13.02821,37.24873,37.24873,0,0,0-61.54331,41.95391,37.62751,37.62751,0,0,0,10.4657,10.55978A38.44061,38.44061,0,0,0,200.02257,247.14828Z"/><path class="cls-13" d="M206.53315,163.52492s-34.65418.72948-43.54754,37.647l2.45318.46433s6.16592-32.01712,40.572-35.35153Z"/><path class="cls-13" d="M249.85261,226.32908S236.509,258.31957,198.89492,253.106l.46433-2.45318s32.05582,5.96149,47.73354-24.84607Z"/><circle class="cls-3" cx="207.14191" cy="209.53072" r="12.26221"/><path class="cls-4" d="M207.1428,223.12345a13.59364,13.59364,0,1,1,13.59364-13.59364A13.60779,13.60779,0,0,1,207.1428,223.12345Zm0-24.5237a10.93006,10.93006,0,1,0,10.93006,10.93006A10.9424,10.9424,0,0,0,207.1428,198.59975Z"/><circle class="cls-6" cx="211.07462" cy="205.25733" r="3.93271"/><circle class="cls-14" cx="206.80876" cy="210.79287" r="37.36062" transform="translate(-38.76766 374.79201) rotate(-79.28213)"/></g></svg>