<svg xmlns="http://www.w3.org/2000/svg" xmlns:xlink="http://www.w3.org/1999/xlink" width="213" height="197" viewBox="0 0 213 197">
    <defs>
        <path id="a" d="M100.398 38.551c0-21.066-22.382-38.143-49.992-38.143C22.796.408.415 17.658.415 38.724.415 50.952 14.799 64 25.669 70.298c8.827 5.113 30.288 11.328 31.534 12.434 40.884-19.664 43.195-44.181 43.195-44.181z"/>
    </defs>
    <g fill="none" fill-rule="evenodd">
        <ellipse cx="146.387" cy="190.154" fill="#262626" fill-opacity=".196" opacity=".472" rx="66.613" ry="6.846"/>
        <path fill="#999" fill-rule="nonzero" d="M85.956 185.641c-11.762 8.239-5.608-19.422-16.978-57.673a301.263 301.263 0 0 0-17.886-46.391 1.505 1.505 0 0 1 .598-1.973l4.548-2.626a1.508 1.508 0 0 1 2.149.717c3.813 9.137 19.736 45.071 26.415 79.046 5.03 25.596 4.027 26.888 1.154 28.9z"/>
        <path fill="#56595C" fill-rule="nonzero" d="M56.238 76.978a1.508 1.508 0 0 1 2.149.717c3.813 9.137 19.736 45.071 26.415 79.046 5.03 25.596 4.027 26.888 1.154 28.9-2.206 1.545-3.781 1.827-4.96 1.015 6.377-5.498 4.14-6.965-1.387-36.596-4.926-26.404-19.631-63.784-22.775-71.61 0 0-4.28 2.67-4.712 1.912-.432-.758-.15-.921-.15-.921l4.266-2.463z" opacity=".67"/>
        <path fill="#56595C" fill-rule="nonzero" d="M52.748 79.6a49.554 49.554 0 0 1-3.856-8.036l-.662 1.004c-1.506-.73-11.665-.43-18.063.825-5.846 1.148-8.755-2.056-9.544-4.019-.731-1.366-9.637-17.813-16.332-21.826-1.148-.688-4.64-2.782-3.527-5.519 1.252-3.082 7.724-2.939 10.214-2.361 3.643.847 6.507.552 7.443.052-1.54-.896-6.326-1.688-8.01-1.967-3.376-.558-5.837-1.083-6.858-2.78a3.153 3.153 0 0 1-.233-2.726c1.067-3.148 5.923-2.53 16.568-1.173l2.152.273c7.225.912 9.325.097 9.816-.191-1.235-.794-6.984-1.795-10.828-2.464-10.906-1.899-16.127-2.967-15.64-6.456.113-.795.55-1.509 1.21-1.971 2.573-1.886 9.266-.938 19.18.72 2.305.387 4.482.752 6.158.963 5.304.669 8.053.372 9.158.066-1.22-1.14-8.766-2.185-13.293-2.812-8.657-1.2-11.785-1.769-12.877-3.434a2.24 2.24 0 0 1-.297-1.862c.982-3.48 5.489-2.834 10.706-2.086 1.82.26 3.704.531 5.646.69 1.146.093 2.294.208 3.415.32 2.632.263 6.015.598 7.912.34l-.399-.824a69.742 69.742 0 0 0-7.49-1.09c-5.24-.567-7.094-.829-7.92-2.12a2.06 2.06 0 0 1-.218-1.778c1.133-3.36 5.56-3.608 11.856-2.954.51.054 1 .086 1.464.1a5.05 5.05 0 0 1 2.372-3.365 4.907 4.907 0 0 1 5.1.273c1.593.975 1.806 2.368 1.473 3.347-.528 1.553-2.446 2.523-4.859 2.98.222.515.488 1.098.776 1.713 1.793.717 2.843 1.76 2.71 3.401a3.883 3.883 0 0 1-.38 1.407c2.556 5.231 5.265 10.936 5.626 14.535.328 3.235-.085 12.113-.484 20.699-.364 7.842-.74 15.95-.455 17.993.474 3.388 3.27 8.568 4.308 10.277l-3.038 1.837zM4.432 43.294A9.575 9.575 0 0 0 6.12 44.51c7.798 4.676 17.292 22.545 17.692 23.303l.099.222c.105.255 1.239 2.725 5.573 1.881 3.982-.782 13.906-1.794 18.65-.975-.07-.328-.128-.65-.172-.965-.331-2.366.02-9.911.425-18.646.374-8.065.799-17.204.498-20.181-.288-2.857-2.729-8.087-4.98-12.71-2.376.664-5.795.323-9.864-.083-1.04-.105-2.103-.211-3.165-.3 6.906.996 11.257 1.856 12.86 3.586 1.658 1.794 1.301 3.234.94 3.933-.425.826-1.72 3.335-13.184 1.888-1.749-.22-3.96-.59-6.302-.982-3.996-.67-11.566-1.929-14.97-1.714 2.643.906 7.947 1.83 11.418 2.435 8.846 1.54 12.281 2.294 13.278 4.12a3.427 3.427 0 0 1-.01 3.756c-.937 1.367-3.333 3.044-13.31 1.785l-2.157-.274c-4.562-.58-9.623-1.226-11.938-1.063 1.145.309 2.307.553 3.48.73 5.389.892 9.605 1.749 10.881 3.967a2.84 2.84 0 0 1 .191 2.47c-1.331 3.516-7.235 3.504-11.88 2.426a12.771 12.771 0 0 0-5.74.174zM34.317 7.681l.483.053c1.882.203 3.692.4 5.32.655-.046-.115-.089-.228-.13-.338a23.072 23.072 0 0 1-2.225-.122 47.151 47.151 0 0 0-3.448-.248z"/>
        <path fill="#56595C" fill-rule="nonzero" d="M83.156 187.019c-7.985 1.724-3.845-24.29-14.178-59.05a301.263 301.263 0 0 0-17.886-46.392 1.505 1.505 0 0 1 .598-1.973s9.338 18.93 15.356 36.538c6.018 17.607 12.97 46.717 16.11 70.877z" opacity=".15"/>
        <path fill="#56595C" fill-rule="nonzero" d="M127.841 155.66c6.314-.004 14.11-1.521 20.16.533 8.298 2.817 1.661 11.716-3.129 14.267-1.227.654 1.632.493 2.183.2 4.41-2.349 11.633-9.71 5.707-14.428-2.434-1.938-6.558-2.832-9.473-2.93-4.834-.164-8.969.305-13.806.307-.772 0-3.52 2.051-1.642 2.05zM84.046 155.703a71.244 71.244 0 0 0 28.849 5.603c3.845-.02 10.65-.52 13.854-3.167-.32.265-3.637-2.997-4.845-1.998-1.716 1.417-6.23 2.041-8.266 2.315-9.691 1.304-19.332-.936-28.29-4.56-1.05-.426-5.133-.625-2.487 1.242l1.185.565zM151.484 176.332c1.805.973 3.03 3.435 3.806 5.204.203.463 1.512.973 1.174.2-.988-2.253-2.539-5.032-4.808-6.256-.87-.469-.816.504-.172.852zM147.401 179.669c.509.238.763 1.304.918 1.78.429 1.358.65 2.773.657 4.196.008.517 1.397.076 1.39-.366a14.793 14.793 0 0 0-.674-4.379c-.17-.525-.455-1.653-1.032-1.924-.428-.201-1.619.524-1.259.693zM137.165 180.775c-.968 2.332-.97 4.688-.719 7.155.142 1.398 2.74 2.334 2.554.51-.206-2.035-.292-4.009.511-5.943.535-1.286-1.756-3.14-2.346-1.722zM130.99 179.023a13.816 13.816 0 0 0-2.629 5.117c.019-.064 1.38.096 1.466-.201a13.814 13.814 0 0 1 2.628-5.117c-.002.003-.671.002-.745.013-.188.025-.587.027-.72.188zM153.37 50.601c1.937 7.731-.217 20.925-15.355 41.554 0 0-14.922 19.406-1.238-2.105 14.359-22.572 11.17-38.41 8.545-45.116a1.799 1.799 0 0 1 .548-2.054 1.808 1.808 0 0 1 2.128-.103 13.372 13.372 0 0 1 5.373 7.824zM105.511 76.558c.308.962-2.789-12.482-8.597-21.39a12.706 12.706 0 0 0-11.64-5.577 1.155 1.155 0 1 0-.651 2.025c4.108 3.553 14.017 12.951 19.231 24.99.51 1.177 1.25-1.318 1.657-.048z"/>
        <path fill="#DB3742" fill-rule="nonzero" d="M169.016 111.96c0-21.066-22.382-38.143-49.992-38.143-27.609 0-49.99 17.25-49.99 38.316 0 12.228 14.383 25.277 25.253 31.574 8.827 5.113 30.288 11.328 31.534 12.434 40.884-19.664 43.195-44.18 43.195-44.18z"/>
        <g transform="translate(68.618 73.41)">
            <mask id="b" fill="#fff">
                <use xlink:href="#a"/>
            </mask>
            <use fill="#DB3742" fill-rule="nonzero" xlink:href="#a"/>
            <g fill-rule="nonzero" mask="url(#b)">
                <path fill="#451717" d="M67.688 1.174S81.79 6.117 87.895 12.508c8.194 8.58 20.842 22.544 5.243 45.286-13.165 19.192-37.849 26.111-37.849 26.111s-24.71-9.487-35.074-17.36c0 0 33.4 12.496 49.733.156 27.457-20.746 32.223-51.503-2.26-65.527z" opacity=".16"/>
                <path fill="#FFF" d="M16.668 64.048c-4.955-3.028-25.83-14.08-17.762-31.974C16.732-7.463 53.652-4.584 70.214 3.522c-8.483-.551-34.877-5.604-53.546 12.493-11.315 10.968-15.017 32.56 0 48.033z" opacity=".14"/>
            </g>
        </g>
        <ellipse cx="141.463" cy="98.862" fill="#451717" fill-rule="nonzero" rx="6.635" ry="6.621"/>
        <path fill="#370E10" fill-rule="nonzero" d="M141.463 106.074a7.227 7.227 0 0 1-6.677-4.452 7.2 7.2 0 0 1 1.566-7.86 7.238 7.238 0 0 1 7.876-1.562 7.212 7.212 0 0 1 4.461 6.663c-.004 3.98-3.237 7.206-7.226 7.211zm0-13.242c-3.338 0-6.043 2.699-6.044 6.03 0 3.33 2.705 6.03 6.043 6.03 3.338.001 6.044-2.699 6.044-6.03-.004-3.328-2.707-6.026-6.043-6.03z"/>
        <ellipse cx="143.591" cy="96.555" fill="#FFF" fill-rule="nonzero" rx="2.128" ry="2.123"/>
        <path fill="#FFF" fill-rule="nonzero" d="M121.053 173.18c-3.818-7.967-.47-16.354 3.683-17.377a2.354 2.354 0 0 1 1.837.447c.522.4.853.999.912 1.653.484 2.536-7.055 4.952-6.432 15.277z" opacity=".08"/>
        <ellipse cx="90.735" cy="94.862" fill="#451717" fill-rule="nonzero" rx="5.449" ry="5.437"/>
        <path fill="#370E10" fill-rule="nonzero" d="M90.735 100.89c-3.336 0-6.04-2.7-6.04-6.028 0-3.33 2.704-6.028 6.04-6.028s6.04 2.699 6.04 6.028c-.003 3.327-2.705 6.024-6.04 6.027zm0-10.875a4.852 4.852 0 0 0-4.857 4.847 4.852 4.852 0 0 0 4.857 4.846 4.852 4.852 0 0 0 4.857-4.846 4.857 4.857 0 0 0-4.857-4.847z"/>
        <ellipse cx="92.482" cy="92.967" fill="#FFF" fill-rule="nonzero" rx="1.748" ry="1.744"/>
        <path fill="#370E10" fill-rule="nonzero" d="M124.504 128.829c-1.394 0-2.784-.129-4.155-.383a.59.59 0 1 1 .215-1.16c12.159 2.238 21.365-6.445 23.167-9.693a.592.592 0 0 1 1.036.572c-1.696 3.056-9.556 10.664-20.263 10.664z"/>
        <path fill="#DB3742" fill-rule="nonzero" d="M142.8 181.844c-7.503 1.268-13.66-3.728-14.492-7.09-.83-3.36-2.369-3.02 5.02-4.838 7.387-1.82 15.335 1.8 21.383 2.063 0 0-1.263 8.064-11.912 9.865z"/>
        <path fill="#DB3742" fill-rule="nonzero" d="M124.267 153.855c4.367-2.516 11.317-2.517 14.837 3.567 3.52 6.084 2.278 15.95-2.09 18.466-4.367 2.516-10.76-.377-14.28-6.461-3.52-6.084-2.834-13.056 1.533-15.572z"/>
        <path fill="#451717" fill-rule="nonzero" d="M140.748 169.583c.824-3.89.387-8.651-1.644-12.161a9.828 9.828 0 0 0-6.35-4.857c2.066 1.542 3.136 5.007 3.323 8.13.336 5.64-1.838 9.962-5.706 10.603-3.87.641-7.758-3.358-8.686-8.933-.4-2.232-.22-4.53.526-6.671-2.42 3.248-2.341 8.784.522 13.733a16.045 16.045 0 0 0 5.771 5.912c1.34 3.322 7.216 7.702 14.295 6.505 10.649-1.8 11.912-9.865 11.912-9.865-4.049-.176-8.95-1.85-13.963-2.396z" opacity=".16"/>
        <g fill="#DB3742" fill-rule="nonzero">
            <path d="M173.476 177.025V184h-.955v-6.975H170V176h6v1.025zM185.863 177.345l-2.344 6.54h-1.05l-2.358-6.553-.087 6.668H179l.258-8h1.397l2.37 6.58 2.357-6.58h1.37l.248 8h-1.062z"/>
        </g>
    </g>
</svg>
