<svg xmlns="http://www.w3.org/2000/svg" viewBox="0 0 338.22116 433.01955"><defs><style>.cls-1{fill:#d8d8d8;opacity:0.5;}.cls-2,.cls-8{fill:#56595c;}.cls-3{fill:#db3742;}.cls-4{fill:#fbeb34;}.cls-5{fill:#451717;}.cls-6{fill:#370e10;}.cls-7,.cls-9{fill:#fff;}.cls-8{opacity:0.26;}.cls-9{opacity:0.62;}.cls-10{fill:#ffcf2b;}</style></defs><title>example</title><g id="Layer_1" data-name="Layer 1"><circle class="cls-1" cx="169.11058" cy="216.50977" r="157.5"/><path class="cls-2" d="M185.291,100.37918c9.163,9.248,17.14768,29.57429,13.13207,71.15347,0,0-4.73139,39.6802-3.491-1.927,1.30162-43.65939-16.37765-63.25454-25.651-70.489A2.9426,2.9426,0,0,1,171.2334,93.86,21.84651,21.84651,0,0,1,185.291,100.37918Z"/><path class="cls-2" d="M101.59423,190.31235c2.14238,1.29627-25.54567-18.77977-50.897-25.97462a31.41377,31.41377,0,0,0-30.78788,8.516,2.86672,2.86672,0,0,0,2.08644,4.84253c13.44813-.04495,47.24164,1.39383,76.58907,15.403C101.4517,194.46773,98.76613,188.60118,101.59423,190.31235Z"/><path class="cls-2" d="M130.36932,285.56562c.53094-3.94922,2.76627-7.887,5.24063-10.91359,7.75056-9.48021,19.51361-10.99785,30.955-12.12321a227.7581,227.7581,0,0,0,31.91246-5.02985,51.84728,51.84728,0,0,0,9.40348-2.90458c1.3391-.6188.23638-2.84-1.0233-2.25786-15.60888,7.21282-34.40471,6.08846-50.94156,8.892-12.36106,2.09559-26.01715,10.29194-27.8445,23.88409-.18782,1.397,2.08606,2.02821,2.29783.453Z"/><path class="cls-2" d="M168.24687,307.78029c-2.039-5.35912-6.1284-10.38773-11.423-12.71336-.28641-.1258-1.16888.62861-.97636.71318,5.24972,2.3059,9.31289,7.34063,11.33519,12.65591.06956.18283,1.17566-.36278,1.0642-.65572Z"/><path class="cls-2" d="M152.18454,304.093c2.40185,1.9409,3.54878,5.35216,4.04657,8.26242.11471.67064,1.25788.17736,1.15246-.43894-.52886-3.09193-1.79131-6.64718-4.331-8.69948-.48574-.39252-1.4052.44191-.868.876Z"/><path class="cls-2" d="M133.1509,307.0358a11.6,11.6,0,0,1-2.48335,9.67731c-.14751.18637.76139,1.0256.84167.92417a11.70921,11.70921,0,0,0,2.503-9.75556c-.08189-.33763-.8501-.79977-.86129-.84591Z"/><path class="cls-2" d="M149.29034,317.32616c.93915-3.6024-.376-7.553-2.25217-10.604-.33772-.54921-1.50508-.36013-1.09413.30817,1.71675,2.7918,3.02863,6.61528,2.19763,9.80285-.16774.64341.98338,1.127,1.14867.493Z"/><path class="cls-3" d="M94.40477,206.19672c0,32.51,30.11286,54.39846,62.62285,54.39846,25.55521,0,59.163-31.831,53.08306-60.84735-7.02317-33.51781-23.42808-44.45724-55.93807-44.45724S94.40477,173.68674,94.40477,206.19672Z"/><path class="cls-3" d="M161.55946,258.72391s14.71884,18.08934-1.36484,28.08644c0,0,5.83777,29.10359-37.41466,18.28174,0,0,16.94853-24.55527,33.325-20.22577C156.105,284.86633,144.64037,273.46039,161.55946,258.72391Z"/><path class="cls-4" d="M195.96907,166.09586s-7.53884-40.13434-32.94941-46.6614S70.98918,133.55725,79.56139,188.623c4.42041,17.6373,13.876,27.84445,13.876,27.84445l102.53171-50.37162"/><circle class="cls-5" cx="192.53705" cy="207.43999" r="6.31262" transform="matrix(0.99131, -0.13158, 0.13158, 0.99131, -25.621, 27.13766)"/><path class="cls-6" d="M193.44169,214.25613a6.87605,6.87605,0,1,1,5.911-7.72041A6.88381,6.88381,0,0,1,193.44169,214.25613Zm-1.66133-12.51621a5.74993,5.74993,0,1,0,6.456,4.944A5.75645,5.75645,0,0,0,191.78036,201.73992Z"/><circle class="cls-7" cx="189.96323" cy="206.06555" r="2.02457" transform="translate(-25.46253 26.78705) rotate(-7.56092)"/><circle class="cls-5" cx="135.35033" cy="218.39426" r="6.91808" transform="translate(-27.55958 19.70826) rotate(-7.56092)"/><path class="cls-6" d="M136.35989,225.99625a7.66925,7.66925,0,1,1,6.59345-8.61169A7.67723,7.67723,0,0,1,136.35989,225.99625Zm-1.82051-13.71546a6.16651,6.16651,0,1,0,6.92429,5.3015A6.17348,6.17348,0,0,0,134.53938,212.28079Z"/><circle class="cls-7" cx="132.92176" cy="216.78949" r="2.21875" transform="translate(-27.36954 19.37475) rotate(-7.56092)"/><path class="cls-6" d="M132.48433,241.44962a26.715,26.715,0,0,1-3.81-3.09147.69517.69517,0,1,1,.97026-.99583c10.41556,10.14089,25.10108,7.65579,28.98993,5.65285a.6959.6959,0,1,1,.63733,1.23731C155.61308,246.13629,142.94777,248.4489,132.48433,241.44962Z"/><path class="cls-8" d="M207.44141,249.20214a4.08443,4.08443,0,0,1-1.48935,2.52966q-1.36889.93063-2.79041,1.79723c.09292,1.08187.21725,2.15631.36076,3.229.71823-.39371,1.4374-.78437,2.16366-1.15451.94807-.48324,1.8801-.99808,3.07076-1.63235"/><path class="cls-2" d="M208.75683,253.97114c-.12484,1.01016-.14706,1.62281-.28221,2.20944a21.21093,21.21093,0,0,0-.34717,8.51154c.47345,2.67081,1.10578,5.32278,1.83516,7.9364.82526,2.95715,1.77232,5.885,2.78813,8.78286.73775,2.1047,1.62255,4.16286,2.53363,6.20074a61.60779,61.60779,0,0,0,3.58239,7.46481c2.01956,3.25178,4.40722,6.27423,6.62224,9.40556,1.82528,2.58034,3.91824,4.84148,7.07381,5.75323a2.36594,2.36594,0,0,0,1.70178-.19605,1.3952,1.3952,0,0,0,.35781-1.34051,2.00935,2.00935,0,0,0-1.36248-.92468,4.82143,4.82143,0,0,1-3.45366-2.0253,63.01307,63.01307,0,0,0-5.02452-6.13908c-2.42053-2.31393-3.69186-5.26027-5.22758-8.07552a26.12653,26.12653,0,0,1-.96446-2.90842c-1.45438-3.65951-3.23539-7.21732-4.35823-10.97337-1.51334-5.06219-3.46346-10.08485-3.52588-15.46422-.03919-3.37874-1.03136-6.61362-.62059-10.12421a36.03073,36.03073,0,0,1,2.44561-10.16552c2.02006-4.78412,3.98142-9.549,7.01941-13.78491a76.86759,76.86759,0,0,1,5.36518-7.01274,100.15341,100.15341,0,0,1,7.74947-7.53061,9.56889,9.56889,0,0,1,3.76476-1.87951c.33821-.09266,1.0627,1.26964,1.63049,1.9459.22908.27283.52624.48738.77128.74839.97215,1.03516,1.88694,2.12987,2.91593,3.10447,1.132,1.0719,2.22946,2.62215,3.58112,2.93705a15.33459,15.33459,0,0,0,11.48306-2.24264,52.6122,52.6122,0,0,0,7.16655-5.44626c1.0094-.89621,3.09088,2.32393,3.59118,3.48435.90863,2.10774,9.51452-3.37333,8.68107-5.7-.326-.91015-2.5786-5.5646-3.08769-6.78423,5.29118-2.24305,13.56135-7.93995,13.60865-8.99555.04536-1.01227-1.04732-2.55358-2.0291-2.13014-1.12689.48612-13.38208,6.9074-13.77274,7.209-.26548-.433-.18245-.29277-.36017-.58832-2.20243-3.66365-6.10082-10.43409-8.3595-14.06268,1.25419-1.03795,7.44182-4.54672,10.16324-6.91965,2.03519-1.77458,3.78176-2.42513,2.7102-4.65036a1.23976,1.23976,0,0,0-1.98923-.6439c-1.23535.72567-11.21507,6.40148-13.8683,8.84059-1.72991-1.9029-6.18782-6.19225-6.487-6.0033-2.28833,1.44483-4.5286,2.97929-6.67942,4.62245a2.21638,2.21638,0,0,0-.40646,3.18133c.8881,1.42625,1.782,2.8492,2.65011,4.2877,2.42737,4.02222,4.78471,8.0881,7.2816,12.06648,1.8926,3.01569,3.953,5.92622,5.94708,8.878a1.48715,1.48715,0,0,1-.43214,2.3543c-1.58176,1.12748-3.09087,2.3565-4.66815,3.49049a16.31251,16.31251,0,0,1-7.65013,3.31716c-1.4118.16091-2.82589.264-4.036-.91445a21.593,21.593,0,0,1-6.88646-13.69554,7.05428,7.05428,0,0,1,1.81523-6.00739c1.91321-1.82519,3.88056-3.59607,5.87478-5.33257.7429-.64686,1.29541-1.41476.649-2.19331-.26591-.3203-1.45336-.17941-2.02673.12231a24.08428,24.08428,0,0,0-3.43381,2.31452,15.58,15.58,0,0,0-5.33587,7.184,13.14961,13.14961,0,0,0,.01461,8.04519,1.39844,1.39844,0,0,1-.68985,1.77561c-1.54146,1.13787-3.03275,2.34383-4.54288,3.52419-.9463.73961-1.94328,1.42507-2.82057,2.23934a37.58608,37.58608,0,0,0-2.85182,2.99652c-2.50086,2.89608-5.07782,5.73667-7.41658,8.76013-3.20017,4.13709-4.83024,9.111-7.01155,13.79445a31.42194,31.42194,0,0,0-2.681,8.59745"/><path class="cls-2" d="M316.05393,200.41368a.91873.91873,0,0,0,.30656-.00461c.85485-.32511,1.934-.45571,2.4803-1.06333.38854-.43222.33242-2.01147-.00885-2.199a4.53049,4.53049,0,0,0-2.71327-.29125,45.29123,45.29123,0,0,0-5.0899,1.17584c-1.285.35728-1.91434-.093-2.24946-1.32859-.48231-1.77811-1.06418-3.52908-1.59754-5.29343a1.38043,1.38043,0,0,0-1.98083-1.07321c-1.84365.59619-3.71193,1.12-5.53927,1.76142a10.33631,10.33631,0,0,0-3.02355,1.43271c-.5133.40738-.57295,1.38637-.83648,2.10848a22.36978,22.36978,0,0,0,2.34272.6391c.30526.05213.6685-.222,1.00265-.35415,1.33341-.52757,2.66413-1.062,3.999-1.58587,1.13818-.44662,1.73938.03361,2.0117,1.14686.42511,1.738.85212,3.47653,1.33245,5.19976.33673,1.20795.94453,1.75442,2.3872,1.29579,2.32883-.74042,4.74243-1.2142,7.12027-1.8006Z"/><path class="cls-2" d="M269.14935,150.53381A9.48447,9.48447,0,0,1,271.139,150.42c2.1256.166,2.86623-.38886,2.84714-2.51766-.02388-2.66262-.37917-5.3409.9051-7.85265a1.33014,1.33014,0,0,0,.04668-.9055c-.17483-.57541-.52576-1.62-.66506-1.59779a3.95677,3.95677,0,0,0-2.37592.86934,5.57608,5.57608,0,0,0-.84954,2.84867c-.14394,1.68135-.04159,3.38256-.12539,5.07131-.01715.34582-.34738.91293-.62.971-1.8376.39151-3.71063.61876-5.54471,1.02373a2.17349,2.17349,0,0,0-1.45844.99981,2.80944,2.80944,0,0,0,.28582,1.92926c.39611.80716,1.06971,1.47257,1.54307,2.24837A18.96241,18.96241,0,0,1,267.36,161.447c.14355,1.24162.6538,2.02645,1.949,1.66752,1.118-.30985,1.41364-1.18873,1.00805-2.31925-1.01667-2.8337-2.00025-5.67938-2.98053-8.526a11.39793,11.39793,0,0,1-.2877-1.29675C267.85539,150.79975,268.49632,150.62208,269.14935,150.53381Z"/><ellipse class="cls-9" cx="139.50135" cy="149.26757" rx="21.13553" ry="24.08249" transform="translate(-48.92567 70.29485) rotate(-24.19769)"/><path class="cls-2" d="M287.19213,164.49112c-1.67307,3.14335-3.24174,6.34214-4.85445,9.51774a1.44677,1.44677,0,0,0,.67915,2.192,1.54,1.54,0,0,0,2.24039-.96239c.91233-2.20783,1.73964-4.45106,2.58551-6.686a1.78964,1.78964,0,0,1,2.49709-1.17492c1.50513.64383,2.98563,1.34513,4.48,2.0143,1.67106.74821,2.3629.61471,3.33508-.94472a40.73815,40.73815,0,0,0,2.28475-4.30938,45.20886,45.20886,0,0,0,1.94044-4.76711c.12548-.37454-.37245-1.36949-.56517-1.36456a3.11288,3.11288,0,0,0-1.94835.60812,4.816,4.816,0,0,0-.86366,1.94c-.49106,1.43382-.8846,2.90317-1.42271,4.31817-.5271,1.38609-1.779,1.44144-3.11749.688a56.24166,56.24166,0,0,0-5.68286-2.44533C288.20483,163.59751,287.48921,163.93294,287.19213,164.49112Z"/><path class="cls-10" d="M125.133,137.32866l9.85184-5.631a.50954.50954,0,0,1,.73894.28956L139.3811,143.62a.50954.50954,0,0,0,.75354.28088l5.84145-3.60223a.50954.50954,0,0,1,.777.43126l.11194,23.30967a.50954.50954,0,0,1-.98569.18385l-4.6118-12.105a.50954.50954,0,0,0-.73324-.25853l-7.91761,4.62688a.50954.50954,0,0,1-.73315-.25827l-6.97374-18.27575A.50954.50954,0,0,1,125.133,137.32866Z"/><path class="cls-10" d="M93.43737,216.46748s74.71075-41.67656,108.13574-40.41754c19.03015-12.85778,18.8336-47.09577-26.83086-23.34839s-81.30489,63.76593-81.30489,63.76593"/></g></svg>