<svg xmlns="http://www.w3.org/2000/svg" viewBox="0 0 338.22116 433.01955"><defs><style>.cls-1{fill:#d8d8d8;opacity:0.5;}.cls-2{fill:#56595c;}.cls-3{fill:#db3742;}.cls-4{fill:#ffcf2b;}.cls-5{fill:#fbeb34;}.cls-6{fill:#808285;}.cls-7{fill:#451717;}.cls-8{fill:#370e10;}.cls-9{fill:#fff;}.cls-10{fill:#103647;}.cls-11{fill:#1e626f;}.cls-12{fill:#1f6076;}</style></defs><title>Mashlings</title><g id="Layer_1" data-name="Layer 1"><circle class="cls-1" cx="169.11058" cy="216.50977" r="157.5"/><path class="cls-2" d="M271.09973,289.60553a21.46891,21.46891,0,0,1,2.95655,8.60086c.06632.59387,2.89793.70659,2.9052.77173a21.46122,21.46122,0,0,0-2.95655-8.60086c-.21155-.34981-1.03822-.47443-1.40331-.57142-.1532-.04069-1.48723-.17607-1.50189-.20032Z"/><path class="cls-3" d="M233.79858,293.84415c11.283,8.54719,42.18483,9.37515,40.36942-9.36529S241.56193,288.70737,233.79858,293.84415Z"/><path class="cls-4" d="M60.72625,157.71689,50.33575,286.29926A14.37082,14.37082,0,0,0,57.171,299.722l27.91156,17.04225a14.37082,14.37082,0,0,0,8.81831,2.04395L226.99,306.44369a14.37082,14.37082,0,0,0,13.02369-15.02309l-6.844-137.6017A14.37082,14.37082,0,0,0,222.40813,140.618l-28.19488-7.27715a14.37082,14.37082,0,0,0-5.02894-.38393L73.61288,144.57565A14.37082,14.37082,0,0,0,60.72625,157.71689Z"/><path class="cls-5" d="M224.76155,297.26165,97.34964,308.43053a4.77036,4.77036,0,0,1-5.17819-5.04089L100.362,168.32378a4.77036,4.77036,0,0,1,4.27114-4.45633l115.325-11.92056a4.77036,4.77036,0,0,1,5.25888,4.60829l3.89632,135.81753A4.77036,4.77036,0,0,1,224.76155,297.26165Z"/><path class="cls-2" d="M94.788,147.65075c1.88693-46.07106,27.13166-65.2047,49.19276-67.5255s52.43849,21.31062,51.53206,58.39214c0,0-4.52235,7.72933-19.363,3.25458,0,0,1.2317-13.44668-1.99625-24.71071-4.4021-15.36123-19.327-23.71263-29.80134-21.40367-9.88506,2.179-24.8333,11.35319-27.2774,34.12573l-1.32074,19.757S100.93342,154.67666,94.788,147.65075Z"/><path class="cls-6" d="M105.68865,146.77982c2.63984-19.98736,6.03392-55.43664,42.23744-56.19088S185.261,139.99166,185.261,139.99166s6.62131,2.14375,6.472-3.39408c-.061-2.26272-.061-30.94068-24.95091-46.01706s-44.87728-.3687-50.53408,6.79658-14.70768,22.6272-16.9704,49.40272Z"/><path class="cls-6" d="M182.02377,230.18511a18.25865,18.25865,0,1,0-22.13112,17.83816l-3.66992,33.01126,20.11294-2.01137-6.33849-31.69391A18.24847,18.24847,0,0,0,182.02377,230.18511Z"/><path class="cls-2" d="M268.22,267.25439c2.84253.84821,5.76927,2.24417,7.32012,4.91239a2.4537,2.4537,0,0,1,.52658,1.6806c-.35574,1.564-2.61795,2.51259-3.99347,2.1986-1.37-.31273-3.199,2.00734-1.53287,2.38766,3.23084.73749,9.05588-1.9489,8.33527-6.0148-.72118-4.06907-5.66336-6.51983-9.12275-7.55211-1.35988-.40579-3.1913,1.89278-1.53287,2.38766Z"/><path class="cls-3" d="M230.28842,223.09082c12.63562-15.03265,45.169-20.7366,61.61433-5.01811s13.64917,47.89415-40.78025,50.21617C217.905,269.706,214.26,242.1599,230.28842,223.09082Z"/><path class="cls-3" d="M266.13614,256.43239c5.78683,9.97732,9.30129,29.03956.19106,30.58463C251.694,289.49878,253.622,264.7095,266.13614,256.43239Z"/><path class="cls-2" d="M214.00506,175.35919c7.1914,1.77944,17.09155,9.2907,27.45592,30.68286,0,0,9.45412,20.68148-2.267.09771-12.29921-21.599-26.69329-25.88356-33.3419-26.652a1.67448,1.67448,0,0,1-.60838-3.13237A12.43173,12.43173,0,0,1,214.00506,175.35919Z"/><path class="cls-2" d="M283.59158,168.70571c-5.64215,3.34414-12.11752,12.23873-15.44323,33.01908,0,0-2.73547,19.94554,1.94672-.49583,4.91313-21.44961,16.02178-28.7559,21.46186-31.10443a1.48246,1.48246,0,0,0-.28381-2.8107A11.00613,11.00613,0,0,0,283.59158,168.70571Z"/><circle class="cls-7" cx="282.7412" cy="230.19207" r="5.3647" transform="translate(-58.01983 100.52753) rotate(-18.318)"/><path class="cls-8" d="M284.57765,235.73938a5.84353,5.84353,0,1,1,3.71055-7.38339A5.85011,5.85011,0,0,1,284.57765,235.73938Zm-3.37235-10.18631a4.88651,4.88651,0,1,0,6.17438,3.1037A4.892,4.892,0,0,0,281.2053,225.55308Z"/><circle class="cls-9" cx="280.37429" cy="229.45279" r="1.72056" transform="translate(-57.90742 99.74617) rotate(-18.318)"/><circle class="cls-7" cx="242.78038" cy="233.45667" r="5.59447" transform="translate(-61.07081 88.13364) rotate(-18.318)"/><path class="cls-8" d="M244.69549,239.24158A6.09381,6.09381,0,1,1,248.565,231.542,6.10068,6.10068,0,0,1,244.69549,239.24158ZM241.1787,228.619a5.0958,5.0958,0,1,0,6.43883,3.23663A5.10157,5.10157,0,0,0,241.1787,228.619Z"/><circle class="cls-9" cx="240.3121" cy="232.68573" r="1.79425" transform="translate(-60.95359 87.31882) rotate(-18.318)"/><path class="cls-10" d="M292.44936,215.26284c-6.81937,4.96205-47.42944,10.21815-55.265,9.08521s-6.896-1.25722-6.896-1.25722l53.89424-11.57258S299.10028,210.42335,292.44936,215.26284Z"/><path class="cls-11" d="M288.10736,195.12119c-.87385,4.34279-3.92469,10.53378-3.92469,10.53378l-53.89424,17.43585s-11.93793-3.79689-9.21067-12.64645c.82674-2.68265,33.32332-23.10853,46.92134-24.84782S288.76248,191.86541,288.10736,195.12119Z"/><path class="cls-10" d="M271.74,186.55471h0c6.96272,0,11.764,2.83394,13.936,5.48609a4.22311,4.22311,0,0,1,1.25287,2.84318,51.60367,51.60367,0,0,1-3.60715,9.78572l-53.01756,17.15215c-1.82735-.67781-10.13043-4.16959-8.09671-10.95926,1.66384-2.594,32.63987-22.37162,45.94416-24.07334a28.3906,28.3906,0,0,1,3.58836-.23455m-.00059-1.20238a29.47577,29.47577,0,0,0-3.74042.24423c-13.59784,1.73929-46.09446,22.16519-46.9211,24.8478-2.72738,8.84959,9.21044,12.64645,9.21044,12.64645l53.89439-17.43587s3.05087-6.191,3.92477-10.53376c.59209-2.943-5.20524-9.76906-16.36808-9.76884Z"/><polygon class="cls-12" points="230.288 223.091 227.784 222.031 284.183 205.655 284.183 212.721 230.288 223.091"/><path class="cls-10" d="M282.9803,207.25611v4.47143L237.33,220.51145l45.65032-13.25534m1.20238-1.60117L227.7846,222.031l2.50369,1.05979,53.89439-10.37018v-7.06569Z"/><path class="cls-5" d="M259.64691,204.38647a8.19288,8.19288,0,0,0,5.74841-2.58422,5.99151,5.99151,0,0,0,6.25992,0s1.63628,9.35975-3.51593,10.91531C265.04471,213.65189,260.15346,210.14348,259.64691,204.38647Z"/><path class="cls-4" d="M267.08073,213.46955a6.59287,6.59287,0,0,1-3.62828-1.23761,10.52647,10.52647,0,0,1-4.40443-7.79318l-.05871-.67164.674.01761a7.39055,7.39055,0,0,0,5.28391-2.38128l.357-.4004.43915.30882a5.366,5.366,0,0,0,5.61621-.0317l.74092-.42036.14678.83955c.07045.40393,1.66384,9.90322-3.93358,11.59407A4.26981,4.26981,0,0,1,267.08073,213.46955Zm-6.75871-8.49887a9.23766,9.23766,0,0,0,3.80441,6.26554,4.74484,4.74484,0,0,0,3.83964.90648c3.7551-1.13428,3.44863-7.21077,3.2044-9.42767a6.54911,6.54911,0,0,1-5.67609-.15734A8.79058,8.79058,0,0,1,260.322,204.97067Z"/><path class="cls-2" d="M258.087,277.43915c-2.02431-.33972-7.946-.9232-8.64848-3.53686-.76883-2.86064,6.84478-4.68,8.43116-5.16875,2.04982-.6315,1.61983-2.41532-.47431-1.77017a33.432,33.432,0,0,0-8.81728,3.69729c-1.17355.78372-2.704,1.96966-2.70578,3.534-.00418,3.78646,7.57868,4.73548,10.08635,5.15632a2.906,2.906,0,0,0,2.46373-.66015c.43059-.507.48565-1.11391-.33539-1.2517Z"/><path class="cls-2" d="M265.43966,293.32086a26.31938,26.31938,0,0,0,.68288,9.9391c.336,1.27154,3.25072.53655,2.91483-.73452a24.7654,24.7654,0,0,1-.661-9.41285c.18154-1.41409-2.77773-1.03013-2.93671.20827Z"/><path class="cls-2" d="M254.68845,296.74373a20.60915,20.60915,0,0,0-1.014,7.76811c.15415,1.26643,2.94268.232,2.81472-.8193a19.25654,19.25654,0,0,1,.90436-7.2834c.393-1.41127-2.42646-.666-2.70509.33459Z"/><path class="cls-2" d="M243.69283,296.1604a24.09523,24.09523,0,0,0-.8342,6.06941c-.06171,1.35895,2.87284,1.82295,2.94424.25066a21.71708,21.71708,0,0,1,.77846-5.488c.43117-1.3732-2.45339-2.21784-2.8885-.83207Z"/></g></svg>