<svg xmlns="http://www.w3.org/2000/svg" viewBox="0 0 338.22116 433.01955"><defs><style>.cls-1{fill:#d8d8d8;opacity:0.5;}.cls-2{fill:#56595c;}.cls-3{fill:#fbeb34;}.cls-4{fill:#ffcf2b;}.cls-5{fill:#db3742;}.cls-6,.cls-7{fill:#451717;}.cls-6{opacity:0.16;}.cls-8{fill:#370e10;}.cls-9{fill:#fff;}.cls-10{fill:#9a9b9d;}</style></defs><title>Mashlings</title><g id="Layer_1" data-name="Layer 1"><circle class="cls-1" cx="169.11058" cy="216.50977" r="157.5"/><path class="cls-2" d="M85.88174,183.55042c13.34293,30.808,54.20354,36.59449,81.86442,22.55961,3.45044-1.75072-1.76788-2.34048-3.52358-1.44965-12.96395,6.57779-32.261,7.41308-46.652,2.06569A47.45729,47.45729,0,0,1,91.6773,181.99751c-.796-1.83795-6.481-.02965-5.79555,1.55291Z"/><path class="cls-3" d="M134.47241,54.24026s-37.94029,74.1553-55.10807,111.41141c0,0,10.81152-4.10726,31.24208-7.11036,0,0-28.15141,31.95177-40.09765,50.60525,0,0,10.35351-5.62613,19.70826-8.16048,0,0-14.60247,28.98884-32.96409,61.29863,0,0,9.4659-31.5881,13.39045-38.03692a93.17492,93.17492,0,0,0-20.83477,9.54953s10.98788-27.43825,23.82043-47.296c0,0-18.98737,3.11753-27.6674,6.47906C81.63921,119.387,134.47241,54.24026,134.47241,54.24026Z"/><path class="cls-4" d="M135.109,53.26253a3.35106,3.35106,0,0,1,.27734,1.13684,2.57576,2.57576,0,0,1-.31592,1.23682l-.44019.8653L133.7499,58.232l-1.75854,3.46259-3.50977,6.92926-6.99634,13.8703-13.89111,27.79053q-6.9071,13.91354-13.70508,27.87787c-4.51807,9.3147-9.00854,18.64435-13.33276,28.03827l-1.658-1.77606.00171-.00067c2.6123-.95844,5.16821-1.70917,7.77881-2.438,2.60132-.7168,5.21826-1.35864,7.844-1.95734,2.62622-.5954,5.26392-1.13251,7.9082-1.63,2.64429-.49817,5.29785-.93823,7.95483-1.35638l4.07739-.64166-2.72021,3.14227c-3.51,4.05469-6.97974,8.17029-10.41772,12.29858q-5.17676,6.17981-10.22729,12.458c-3.35986,4.1889-6.68384,8.40631-9.89355,12.69708-3.20654,4.28912-6.35889,8.62476-9.22217,13.09357L69.67324,207.609c1.62451-.87268,3.22021-1.669,4.85352-2.45184q2.44263-1.167,4.93652-2.23346A83.75809,83.75809,0,0,1,89.744,199.24031l3.93311-1.09821-1.84473,3.65778Q83.975,217.37849,75.75064,232.719q-8.202,15.37-16.75879,30.55377l-8.92261,15.83087,5.26807-17.39313q2.93774-9.69946,6.12622-19.29681c1.08008-3.20178,2.16577-6.40027,3.3479-9.58545.59741-1.59338,1.186-3.18384,1.85376-4.7746a41.00909,41.00909,0,0,1,2.28442-4.83655l2.24976,2.93378c-1.71729.52435-3.522,1.1698-5.25952,1.84344q-2.62463,1.01486-5.18652,2.1875a86.68724,86.68724,0,0,0-9.89551,5.2829L45.67593,238.672l2.304-5.60718c1.70093-4.13971,3.47974-8.18689,5.32129-12.23291q2.76453-6.05859,5.7334-12.02472c1.97852-3.97766,4.05811-7.90906,6.208-11.80585q3.24426-5.83694,6.89111-11.46619l1.78369,2.723c-4.6311.75671-9.28687,1.61456-13.88281,2.59723-2.30029.49011-4.59155,1.01306-6.85229,1.6026a67.53238,67.53238,0,0,0-6.62939,2.01538l-.01147.004-3.81519,1.34528,1.791-3.54266,4.66211-9.22217,2.33423-4.60895,2.449-4.54755,4.90552-9.09,5.10474-8.97687c1.67773-3.00623,3.44238-5.96088,5.21167-8.91272,1.77466-2.94849,3.49854-5.92786,5.31445-8.85065l5.45068-8.76593c1.80347-2.93042,3.71362-5.79254,5.56519-8.692q11.22327-17.32278,23.2124-34.12744l6.04663-8.36108L120.923,69.838c2.073-2.74524,4.14258-5.49274,6.25269-8.21094l3.17114-4.07336,1.60083-2.02692.80518-1.01068.20117-.25262a2.812,2.812,0,0,1,.5979-.56879,2.30137,2.30137,0,0,1,.87183-.3609A5.50674,5.50674,0,0,1,135.109,53.26253ZM133.83584,55.218a.79288.79288,0,0,0,.282.43085.68591.68591,0,0,0,.46875.14117.33837.33837,0,0,0,.19434-.06659l-.19849.25208-.79468,1.00848-1.58154,2.02466-3.137,4.07391c-2.08789,2.71936-4.13672,5.46967-6.18872,8.21741l-6.0874,8.29517-5.98535,8.36957q-11.88684,16.79947-22.96216,34.14886c-1.82983,2.89978-3.719,5.76276-5.50049,8.69244l-5.38477,8.76361c-1.7937,2.92169-3.49487,5.8985-5.24683,8.84485-1.74683,2.94965-3.489,5.90173-5.14307,8.90363l-5.03467,8.96423-4.83325,9.07141-2.41284,4.53754-2.29663,4.59564-4.58691,9.19373L45.382,191.48335l.01221-.00452a70.45474,70.45474,0,0,1,6.94092-2.20844c2.31812-.63477,4.64233-1.19513,6.97119-1.72144,4.66138-1.05615,9.32007-1.97437,14.03418-2.80438l3.93408-.69269-2.15039,3.41583a250.9602,250.9602,0,0,0-12.70483,23.01569q-2.89893,5.9198-5.60229,11.9386c-1.79517,4.00751-3.54663,8.06335-5.17969,12.10761l-2.87769-2.39978a89.05214,89.05214,0,0,1,10.35156-5.54663q2.66309-1.22342,5.396-2.28119c1.833-.71008,3.63477-1.36163,5.57983-1.95728l4.66333-1.428-2.41333,4.36188a38.4401,38.4401,0,0,0-2.00293,4.29089c-.63379,1.51166-1.21216,3.07751-1.79419,4.63422-1.15674,3.1236-2.23145,6.2981-3.29907,9.472-2.114,6.35712-4.1355,12.76941-6.072,19.183l-3.65454-1.56226q8.61145-15.09,16.8811-30.3811,8.26758-15.28363,16.2063-30.74292l2.08813,2.55945a80.304,80.304,0,0,0-9.84009,3.46918q-2.42285,1.02127-4.80933,2.1441c-1.58276.74719-3.17847,1.53442-4.696,2.33887l-5.97217,3.16583,3.66309-5.64716c2.97314-4.58368,6.18384-8.94507,9.447-13.26117,3.26465-4.31433,6.63086-8.537,10.03149-12.72913q10.19861-12.58383,20.95581-24.67261l1.35693,2.50049c-2.63013.38007-5.25757.78168-7.87427,1.24054-2.6167.45813-5.22632.95532-7.82227,1.5094-2.595.55737-5.18042,1.15692-7.74316,1.82837-2.54785.6745-5.1355,1.40607-7.55493,2.2594l-.00146.00049L76.84,167.979l1.33252-2.87665c4.36084-9.415,8.87769-18.7431,13.42236-28.05743q6.81995-13.96957,13.78-27.86505l13.96191-27.76953,7.03125-13.8587,3.52734-6.92352,1.76758-3.46.885-1.72955.44238-.86475a.58442.58442,0,0,0,.12622.37213A.76294.76294,0,0,0,133.83584,55.218Z"/><path class="cls-2" d="M131.49494,55.95914c9.19587,7.77447,18.20841,25.85215,17.89541,64.48915,0,0-1.12718,36.94564-3.37343-1.4911C143.65988,78.62461,125.77454,62.01026,116.641,56.1a2.7218,2.7218,0,0,1,1.37061-5.00232A20.20728,20.20728,0,0,1,131.49494,55.95914Z"/><path class="cls-2" d="M181.33009,209.34787c15.49-3.95424,35.36934-5.01861,50.139,1.73975,1.55483.71146,6.15505-1.67544,5.455-1.99577-16.65449-7.62082-38.68844-6.06235-56.09631-1.61852-3.3776.86222-2.92026,2.74823.50228,1.87454Z"/><path class="cls-2" d="M244.67522,72.77725c-11.69425,2.87246-27.80737,15.05424-44.71356,49.79753,0,0-15.42464,33.59064,3.68459.16511C223.698,87.66568,247.10687,80.7413,257.916,79.51069a2.7218,2.7218,0,0,0,.99759-5.08985A20.20728,20.20728,0,0,0,244.67522,72.77725Z"/><path class="cls-5" d="M180.76366,237.68879s-26.78134.08819-18.72941-35.54893C166.02083,184.49562,203.78211,214.11292,180.76366,237.68879Z"/><path class="cls-5" d="M217.32586,221.75459S212.98075,246.067,196.55006,247.71c-22.96383,2.29638-24.77677-21.63435-11.05683-28.64436C196.7,213.33974,204.26022,222.99317,217.32586,221.75459Z"/><path class="cls-6" d="M160.82723,219.08613c1.81716,13.44561,11.36412,17.1701,16.55812,18.20288,1.76454,6.38271,7.92513,11.545,19.1648,10.421,16.43074-1.643,20.77568-25.95544,20.77568-25.95544-12.09427,1.14654-19.47343-7.03065-29.3923-3.71237-1.73947-12.459-13.81029-22.37933-20.95786-21.15725,0,0,14.77,11.20457,14.10328,23.65056S165.24522,231.86076,160.82723,219.08613Z"/><path class="cls-5" d="M170.93228,206.94461c-57.22985-11.08849-67.66309-34.23948-62.63368-54.35268,4.77435-19.09319,23.18632-40.09024,66.99231-35.29258C243.38778,124.75737,240.5439,204.24645,170.93228,206.94461Z"/><circle class="cls-7" cx="199.35334" cy="161.39558" r="8.36139" transform="translate(-3.25579 4.10658) rotate(-1.17067)"/><path class="cls-8" d="M199.53929,170.50117a9.10769,9.10769,0,1,1,8.919-9.29112A9.118,9.118,0,0,1,199.53929,170.50117Zm-.34168-16.72028a7.61608,7.61608,0,1,0,7.76938,7.45963A7.62472,7.62472,0,0,0,199.19762,153.78089Z"/><circle class="cls-9" cx="202.5359" cy="158.94244" r="2.68165" transform="translate(-3.20501 4.17109) rotate(-1.17067)"/><circle class="cls-7" cx="130.63599" cy="150.64217" r="7.62028" transform="translate(-3.05043 2.70041) rotate(-1.17067)"/><path class="cls-8" d="M130.80546,158.94069a8.30043,8.30043,0,1,1,8.12846-8.4676A8.30979,8.30979,0,0,1,130.80546,158.94069Zm-.31139-15.23828a6.941,6.941,0,1,0,7.08074,6.79845A6.9489,6.9489,0,0,0,130.49407,143.70241Z"/><circle class="cls-9" cx="133.60737" cy="149.02016" r="2.44396" transform="translate(-3.01668 2.76078) rotate(-1.17067)"/><path class="cls-2" d="M178.31015,248.66652c-.03218-3.65851,1.86762-7.67262,3.67737-10.50828,1.00023-1.56724-1.68622-2.13208-2.44773-.93888-2.16959,3.3995-4.21,7.52633-4.1738,11.6365.01386,1.57595,2.95631,1.19238,2.94415-.18933Z"/><path class="cls-2" d="M186.72635,243.496c-1.28867,3.14643-.858,7.09312-.30975,10.32061.08495.50007,3.008-.12741,2.89778-.77646-.53477-3.14807-.99369-7.02136.2616-10.08627.15325-.37417-2.5589-.16771-2.84962.54212Z"/><path class="cls-2" d="M213.94385,229.40589c2.72636,2.84965,2.32877,8.49339,1.93312,11.96478-.03742.32835,2.80012.0804,2.89778-.77646.41786-3.66633.74762-9.19064-2.09758-12.1645-.49576-.51818-3.15206.5385-2.73332.97618Z"/><path class="cls-2" d="M208.27758,235.04668c-.48879,3.25845-1.34115,7.4.02268,10.54674.57935,1.33674,3.458.51617,2.89778-.77646-1.2878-2.97135-.44035-6.87667.02268-9.96339.22768-1.51777-2.73765-1.17674-2.94314.19311Z"/><path class="cls-6" d="M204.16163,126.78817c36.27093,23.04936,24.405,77.92252-33.22935,80.15644-57.22985-11.08849-67.66309-34.23948-62.63368-54.35268,0,0-.34816,17.27062,7.10139,24.38261s37.45325,25.97536,58.93792,22.89172c17.98149-2.58084,34.88143-15.26494,38.96725-24.44746C217.75525,165.41756,218.13208,142.61,204.16163,126.78817Z"/><path class="cls-9" d="M175.91236,324.45677c-44.46594,0-102.28252.46626-102.28252-32.17213s37.85568-34.50344,45.73795-24.71192c0,0-.80013-15.88606,14.73137-26.12728s44.72487-7.78383,60.43526,8.00607c0,0,9.90275-20.7111,32.15648-19.71232s36.05052,21.9806,34.74727,41.56363c0,0,28.53757-5.59515,30.86888,18.18425C295.90165,326.15187,234.83245,324.45677,175.91236,324.45677Z"/><path class="cls-10" d="M175.91226,326.57222c-15.10571-.00244-30.27295.06384-45.46313-1.01245A190.3531,190.3531,0,0,1,107.7106,322.717c-7.51025-1.55139-15.0874-3.57837-22.00781-7.56482a31.41911,31.41911,0,0,1-9.22461-7.80688,23.5066,23.5066,0,0,1-4.74146-11.35437,33.522,33.522,0,0,1-.18384-6.066,37.44351,37.44351,0,0,1,.80078-5.95685,29.00126,29.00126,0,0,1,4.92114-11.088,28.02741,28.02741,0,0,1,4.1167-4.5368,31.12328,31.12328,0,0,1,4.96606-3.53583,32.63565,32.63565,0,0,1,5.50732-2.50537,35.23258,35.23258,0,0,1,5.81982-1.52472A36.12781,36.12781,0,0,1,109.695,260.64a24.60313,24.60313,0,0,1,5.95117,1.69189,14.33065,14.33065,0,0,1,5.42065,3.86462l.00439.0047-3.8877,1.48132a23.38413,23.38413,0,0,1,.11206-3.37128,32.05014,32.05014,0,0,1,.47266-3.20489,33.60938,33.60938,0,0,1,1.88037-6.18292,34.43057,34.43057,0,0,1,7.09424-10.79816,36.47167,36.47167,0,0,1,10.54712-7.46875l1.47974-.66571.741-.3313.7605-.26117,3.051-1.02594a54.95589,54.95589,0,0,1,6.24341-1.314,60.89151,60.89151,0,0,1,6.31738-.62286c2.1084.02386,4.2251-.05109,6.322.17682a61.9469,61.9469,0,0,1,6.27124.77228c1.04175.15912,2.06128.4411,3.09277.65759a29.03724,29.03724,0,0,1,3.063.79175l3.03052.92645,2.95923,1.15662a26.94691,26.94691,0,0,1,2.90405,1.29993c.946.48517,1.92993.89215,2.84277,1.446a50.23078,50.23078,0,0,1,10.29126,7.67358l-4.83032.82135c.31372-.62195.56812-1.07587.866-1.579.28271-.49811.58691-.96912.89038-1.44171.60986-.9436,1.24609-1.86029,1.928-2.74384a45.01354,45.01354,0,0,1,4.42969-5.01947,37.87444,37.87444,0,0,1,11.12256-7.62036,34.44028,34.44028,0,0,1,13.25317-2.84735l1.69653-.0166.84741-.00128.84009.08588,3.35767.36292a39.90476,39.90476,0,0,1,6.52637,1.75592,36.65381,36.65381,0,0,1,11.57983,6.76794,42.17636,42.17636,0,0,1,13.35938,22.47632,42.839,42.839,0,0,1,1.00854,13.10492l-2.50122-2.20184.001-.00018a41.96255,41.96255,0,0,1,5.76465-.58264,43.13768,43.13768,0,0,1,5.73975.173,29.35128,29.35128,0,0,1,11.2439,3.24939,19.83142,19.83142,0,0,1,8.31812,8.6853,26.76566,26.76566,0,0,1,2.43726,11.51965,25.31224,25.31224,0,0,1-2.57007,11.51965,25.8534,25.8534,0,0,1-7.65967,8.94409,41.82454,41.82454,0,0,1-10.04687,5.50378,75.77928,75.77928,0,0,1-10.72095,3.33325,155.61591,155.61591,0,0,1-21.88354,3.39624c-7.32031.682-14.64307,1.0481-21.95654,1.27161C205.0729,326.686,190.47842,326.56624,175.91226,326.57222Zm0-4.231c14.58447-.0033,29.14771.11743,43.66187-.30969,7.25464-.22046,14.49731-.58252,21.69116-1.25183a151.54584,151.54584,0,0,0,21.29-3.29419,71.60506,71.60506,0,0,0,10.137-3.14539,37.663,37.663,0,0,0,9.07324-4.95093,21.64067,21.64067,0,0,0,6.44067-7.47827,21.08937,21.08937,0,0,0,2.12231-9.60181,22.6264,22.6264,0,0,0-2.01025-9.70013,15.58184,15.58184,0,0,0-6.56567-6.84485,25.21285,25.21285,0,0,0-9.62646-2.749,38.9539,38.9539,0,0,0-5.17871-.15613,38.37192,38.37192,0,0,0-5.10425.506l-.00049.00012-2.59424.55817.09277-2.76019a40.773,40.773,0,0,0-1.34058-11.69891,38.58827,38.58827,0,0,0-12.26025-19.54706,31.20578,31.20578,0,0,0-10.00122-5.58655,34.34281,34.34281,0,0,0-5.55908-1.38611l-2.8645-.27307-.71533-.07318-.71558.01129-1.43066.02753a28.6475,28.6475,0,0,0-11.02124,2.43408,32.0183,32.0183,0,0,0-9.35645,6.52527,39.1198,39.1198,0,0,0-3.80762,4.378c-.58691.76916-1.13477,1.57312-1.65039,2.38275-.25684.40662-.5166.81244-.74438,1.22369-.23364.39349-.479.8551-.63452,1.16394l-1.84546,3.66547-2.98511-2.84412a44.773,44.773,0,0,0-8.94312-6.72614c-.79932-.49683-1.68237-.85773-2.51831-1.29572a22.63733,22.63733,0,0,0-2.584-1.17493l-2.64526-1.05475-2.72729-.847a24.84776,24.84776,0,0,0-2.76221-.7301c-.93262-.199-1.85156-.46576-2.79468-.61273a56.15317,56.15317,0,0,0-5.67725-.72949c-1.90088-.2262-3.80884-.14941-5.71509-.20056a55.26083,55.26083,0,0,0-5.67578.45538,49.45376,49.45376,0,0,0-5.561,1.05615l-2.67529.84717-.66919.21216-.6377.27551-1.27759.54785a31.39109,31.39109,0,0,0-9.12476,6.202,29.18961,29.18961,0,0,0-8.13037,14.29864,27.44654,27.44654,0,0,0-.52295,2.73376,20.13933,20.13933,0,0,0-.21509,2.63928l.011,5.6825-3.89868-4.20111-.00269-.00281a10.13839,10.13839,0,0,0-3.75562-2.60175,20.297,20.297,0,0,0-4.92212-1.39307,31.80645,31.80645,0,0,0-10.54517.121c-6.96,1.21436-13.62012,4.70776-17.65869,10.36829a24.65986,24.65986,0,0,0-4.20068,9.47321,33.08516,33.08516,0,0,0-.7085,5.25928,29.23339,29.23339,0,0,0,.14673,5.24036,19.15269,19.15269,0,0,0,3.87646,9.3064,27.15815,27.15815,0,0,0,7.97021,6.71729c6.20874,3.60071,13.43726,5.59058,20.67773,7.08191a186.22891,186.22891,0,0,0,22.21362,2.79C145.72061,322.37764,160.80459,322.3282,175.91226,322.34126Z"/><path class="cls-1" d="M281.29242,290.83855c-1.6692,8.36376-18.26269,16.2649-49.94839,18.82536-46.16,3.7301-160.16125,11.89526-138.94629-33.10465,2.9226-6.19924,15.85293-9.09212,26.577-.3497,0,0-3.96323-8.1596-15.037-8.62586s-16.43576,4.374-20.98182,9.50286-8.55322,31.78409,36.34362,39.5713,176.93557,12.3621,167.06349-31.2396c-2.09818-9.267-20.28243-11.01546-29.37455-5.77C256.98848,279.64824,283.96538,277.44536,281.29242,290.83855Z"/><path class="cls-1" d="M126.20178,270.03157s3.15212-24.0032,29.14142-26.81011,38.52241,15.01285,38.52241,15.01285-22.66948-12.44841-37.35676-10.11709S131.09754,261.63884,126.20178,270.03157Z"/><path class="cls-1" d="M200.10443,255.33627s15.40562-22.69,36.36849-13.54672,17.48485,31.97212,17.48485,31.97212-4.13832-19.8402-18.88364-26.59354S200.10443,255.33627,200.10443,255.33627Z"/></g></svg>