<?xml version="1.0" standalone="no"?>
<!DOCTYPE svg PUBLIC "-//W3C//DTD SVG 20010904//EN"
 "http://www.w3.org/TR/2001/REC-SVG-20010904/DTD/svg10.dtd">
<svg version="1.0" xmlns="http://www.w3.org/2000/svg"
 width="666.000000pt" height="728.000000pt" viewBox="0 0 666.000000 728.000000"
 preserveAspectRatio="xMidYMid meet">

<g transform="translate(0.000000,728.000000) scale(0.100000,-0.100000)"
fill="#000000" stroke="none">
<path d="M2272 6834 c-14 -10 -22 -26 -22 -44 0 -24 12 -38 76 -86 139 -104
259 -259 350 -448 61 -128 95 -228 130 -378 22 -96 59 -366 52 -373 -2 -2 -39
-13 -83 -24 -219 -60 -420 -201 -542 -381 -120 -178 -176 -408 -138 -576 55
-247 216 -419 539 -575 119 -57 365 -145 479 -170 31 -7 57 -15 57 -20 0 -10
-73 -37 -164 -60 -118 -30 -370 -37 -505 -15 -154 26 -280 74 -391 149 -107
73 -245 227 -299 335 l-22 43 -40 -49 c-21 -28 -39 -55 -39 -62 0 -22 73 -121
134 -184 152 -154 363 -259 603 -301 179 -31 446 -15 628 37 l80 24 -3 -68
c-7 -144 32 -276 105 -358 45 -50 45 -51 17 -43 -16 4 -99 7 -184 7 -133 -1
-169 -5 -252 -27 -148 -39 -246 -95 -349 -197 -69 -68 -94 -102 -127 -170 -23
-47 -49 -112 -57 -144 -8 -32 -16 -60 -18 -62 -2 -2 -28 6 -58 19 -47 19 -73
22 -204 22 -139 0 -156 -2 -230 -28 -252 -89 -396 -275 -421 -542 -26 -286
144 -498 491 -614 179 -59 419 -98 760 -122 237 -17 1666 -17 1920 -1 731 48
1080 168 1227 422 57 98 78 261 49 384 -51 214 -233 337 -501 338 l-96 1 -12
99 c-42 352 -269 631 -582 715 -70 18 -241 24 -322 10 l-46 -8 14 47 c23 78
23 79 -59 81 -52 1 -110 14 -207 43 -101 31 -153 41 -205 42 -38 0 -76 -1 -84
-3 -9 -3 -18 11 -26 41 -6 25 -21 64 -32 87 -25 50 -33 45 112 69 68 12 157
18 280 18 202 0 297 -14 442 -65 91 -32 125 -33 171 -3 31 21 24 25 -93 63
-230 74 -528 85 -838 30 -118 -21 -168 -20 -86 1 342 87 566 244 697 490 63
117 83 196 89 340 6 147 -13 243 -72 369 -76 159 -219 312 -373 397 -2 1 14
30 34 65 222 381 512 661 809 780 81 32 214 69 249 69 56 0 88 67 49 102 -50
44 -182 65 -279 44 -152 -31 -287 -119 -451 -289 -147 -155 -289 -365 -420
-623 l-57 -111 -67 28 c-212 90 -554 137 -808 110 -57 -6 -107 -9 -109 -6 -3
3 -9 81 -13 173 -13 269 -48 483 -111 662 -98 277 -242 440 -426 479 -71 15
-93 14 -120 -5z m386 -1938 c4 -35 -15 -58 -46 -54 -32 4 -47 28 -38 61 11 46
79 41 84 -7z m1377 -176 c23 -25 13 -67 -20 -82 -52 -23 -100 46 -59 86 21 22
57 20 79 -4z m585 -1531 c104 -29 183 -73 264 -149 155 -146 231 -315 243
-542 l6 -107 46 7 c93 14 242 7 317 -16 172 -53 249 -167 249 -368 -1 -96 -2
-105 -38 -177 -99 -199 -358 -317 -822 -371 -267 -32 -417 -38 -1095 -43 -713
-6 -1089 3 -1379 32 -566 57 -870 205 -937 457 -45 169 13 378 138 502 115
113 254 161 443 154 140 -6 188 -25 268 -110 l57 -61 0 94 c0 171 50 290 169
410 59 59 95 85 161 117 135 66 189 77 385 76 150 0 181 -4 267 -27 106 -28
240 -87 313 -137 25 -17 75 -59 111 -92 35 -34 66 -59 68 -57 2 2 20 38 42 79
28 55 62 99 129 165 136 136 245 183 425 184 67 1 117 -5 170 -20z"/>
</g>
</svg>
